<svg xmlns="http://www.w3.org/2000/svg" version="1.1" xmlns:xlink="http://www.w3.org/1999/xlink" xmlns:svgjs="http://svgjs.dev/svgjs" width="2000" height="1999" viewBox="0 0 2000 1999"><g transform="matrix(1,0,0,1,-0.431486880466764,-0.4312711370263287)"><svg viewBox="0 0 343 343" data-background-color="#ede1d1" preserveAspectRatio="xMidYMid meet" height="1999" width="2000" xmlns="http://www.w3.org/2000/svg" xmlns:xlink="http://www.w3.org/1999/xlink"><g id="tight-bounds" transform="matrix(1,0,0,1,0.0740000000000407,0.07400000000001228)"><svg viewBox="0 0 342.85155851775386 342.85155851775386" height="342.85155851775386" width="342.85155851775386"><g><svg></svg></g><g><svg viewBox="0 0 342.85155851775386 342.85155851775386" height="342.85155851775386" width="342.85155851775386"><g><path d="M0 171.426c0-94.676 76.75-171.426 171.426-171.426 94.676 0 171.426 76.75 171.426 171.426 0 94.676-76.75 171.426-171.426 171.426-94.676 0-171.426-76.75-171.426-171.426zM171.426 338.696c92.381 0 167.27-74.889 167.27-167.27 0-92.381-74.889-167.27-167.27-167.271-92.381 0-167.27 74.889-167.271 167.271 0 92.381 74.889 167.27 167.271 167.27z" data-fill-palette-color="tertiary" fill="#6a704c" stroke="transparent"></path><ellipse rx="164.56874808852186" ry="164.56874808852186" cx="171.42577925887693" cy="171.42577925887693" fill="#6a704c" stroke="transparent" stroke-width="0" fill-opacity="1" data-fill-palette-color="tertiary"></ellipse></g><g transform="matrix(1,0,0,1,64.84655864529837,105.34008929397454)"><svg viewBox="0 0 213.1584412271571 132.17137992980477" height="132.17137992980477" width="213.1584412271571"><g><svg viewBox="0 0 213.1584412271571 132.17137992980477" height="132.17137992980477" width="213.1584412271571"><g><svg viewBox="0 0 213.1584412271571 132.17137992980477" height="132.17137992980477" width="213.1584412271571"><g transform="matrix(1,0,0,1,0,62.14384652702173)"><svg viewBox="0 0 213.1584412271571 70.02753340278304" height="70.02753340278304" width="213.1584412271571"><g id="textblocktransform"><svg viewBox="0 0 213.1584412271571 70.02753340278304" height="70.02753340278304" width="213.1584412271571" id="textblock"><g><svg viewBox="0 0 213.1584412271571 46.07912544978864" height="46.07912544978864" width="213.1584412271571"><g transform="matrix(1,0,0,1,0,0)"><svg width="213.1584412271571" viewBox="0.45 -37.5 219.48000000000002 47.45" height="46.07912544978864" data-palette-color="#ede1d1"><path d="M0.45-29.95L0.45-35 28.5-35 28.5-29.95 17.4-29.95 17.4 0 11.5 0 11.5-29.95 0.45-29.95ZM33.2 0L33.2-26.55 38.9-26.55 38.9 0 33.2 0ZM36.05-37.5L36.05-37.5Q37.5-37.5 38.45-36.55 39.4-35.6 39.4-34.15L39.4-34.15Q39.4-32.75 38.45-31.78 37.5-30.8 36.05-30.8L36.05-30.8Q34.65-30.8 33.67-31.78 32.7-32.75 32.7-34.15L32.7-34.15Q32.7-35.6 33.67-36.55 34.65-37.5 36.05-37.5ZM66.75 0L66.75-15Q66.75-18.15 65.09-19.93 63.45-21.7 60.5-21.7L60.5-21.7Q57.05-21.6 55.07-19.15 53.1-16.7 53.1-13.1L53.1-13.1 51.5-13.1Q51.5-18 52.87-21 54.25-24 56.77-25.38 59.3-26.75 62.75-26.75L62.75-26.75Q65.8-26.75 67.97-25.5 70.15-24.25 71.32-21.98 72.5-19.7 72.5-16.5L72.5-16.5 72.5 0 66.75 0ZM86.09 0L86.09-15Q86.09-18.15 84.42-19.93 82.75-21.7 79.8-21.7L79.8-21.7Q76.4-21.6 74.45-19.15 72.5-16.7 72.5-13.1L72.5-13.1 70.84-13.1Q70.84-18 72.22-21 73.59-24 76.12-25.38 78.65-26.75 82.09-26.75L82.09-26.75Q85.15-26.75 87.32-25.5 89.5-24.25 90.67-21.98 91.84-19.7 91.84-16.5L91.84-16.5 91.84 0 86.09 0ZM47.4 0L47.4-26.55 53.1-26.55 53.1 0 47.4 0ZM114.84-26.75L114.84-26.75Q118.64-26.75 121.49-25.05 124.34-23.35 125.94-20.3 127.54-17.25 127.54-13.2L127.54-13.2Q127.54-9.25 125.97-6.23 124.39-3.2 121.57-1.5 118.74 0.2 114.94 0.2L114.94 0.2Q111.29 0.2 108.72-1.4 106.14-3 104.79-6.03 103.44-9.05 103.44-13.2L103.44-13.2Q103.44-17.5 104.79-20.53 106.14-23.55 108.72-25.15 111.29-26.75 114.84-26.75ZM113.64-22.2L113.64-22.2Q111.29-22.2 109.44-21.05 107.59-19.9 106.57-17.93 105.54-15.95 105.54-13.35L105.54-13.35Q105.54-10.75 106.57-8.72 107.59-6.7 109.44-5.58 111.29-4.45 113.64-4.45L113.64-4.45Q116.04-4.45 117.87-5.6 119.69-6.75 120.72-8.75 121.74-10.75 121.74-13.35L121.74-13.35Q121.74-15.9 120.72-17.9 119.69-19.9 117.87-21.05 116.04-22.2 113.64-22.2ZM99.79 0L99.79-37.1 105.54-37.1 105.54 0 99.79 0ZM135.69-15.2L151.94-15.2Q151.84-17.45 150.92-19.03 149.99-20.6 148.34-21.48 146.69-22.35 144.54-22.35L144.54-22.35Q142.14-22.35 140.37-21.25 138.59-20.15 137.59-18.18 136.59-16.2 136.59-13.55L136.59-13.55Q136.59-10.7 137.67-8.6 138.74-6.5 140.67-5.35 142.59-4.2 145.09-4.2L145.09-4.2Q149.54-4.2 152.59-7.35L152.59-7.35 155.64-4.3Q153.69-2.15 150.89-0.98 148.09 0.2 144.64 0.2L144.64 0.2Q140.54 0.2 137.49-1.5 134.44-3.2 132.74-6.23 131.04-9.25 131.04-13.25L131.04-13.25Q131.04-17.25 132.74-20.28 134.44-23.3 137.49-25 140.54-26.7 144.49-26.75L144.49-26.75Q149.19-26.75 152.04-24.83 154.89-22.9 156.09-19.4 157.29-15.9 156.94-11.1L156.94-11.1 135.69-11.1 135.69-15.2ZM177.89-26.75L177.89-21.55Q175.04-21.7 172.96-20.58 170.89-19.45 169.76-17.45 168.64-15.45 168.64-12.85L168.64-12.85 167.04-13.05Q167.04-17.5 168.34-20.55 169.64-23.6 172.09-25.18 174.54-26.75 177.89-26.75L177.89-26.75ZM162.94 0L162.94-26.55 168.69-26.55 168.69 0 162.94 0ZM182.89 0L182.89-37.1 188.64-37.1 188.64 0 182.89 0ZM219.93-26.55L207.83 3.75Q206.58 6.8 204.38 8.38 202.18 9.95 199.18 9.95L199.18 9.95Q197.38 9.95 195.91 9.4 194.43 8.85 193.03 7.75L193.03 7.75 195.48 3.5Q197.28 4.8 198.93 4.8L198.93 4.8Q200.23 4.8 201.28 4.05 202.33 3.3 202.98 1.75L202.98 1.75 203.88-0.35 192.88-26.55 198.83-26.55 206.78-6.05 214.18-26.55 219.93-26.55Z" opacity="1" transform="matrix(1,0,0,1,0,0)" fill="#ede1d1" class="wordmark-text-0" data-fill-palette-color="quaternary" id="text-0"></path></svg></g></svg></g><g transform="matrix(1,0,0,1,0,56.95730106947295)"><svg viewBox="0 0 213.1584412271571 13.070232333310086" height="13.070232333310086" width="213.1584412271571"><g transform="matrix(1,0,0,1,0,0)"><svg width="213.1584412271571" viewBox="1.4999999999999998 -36.85 750.12 46" height="13.070232333310086" data-palette-color="#ede1d1"><path d="M18.8 0.4L18.8 0.4Q14.8 0.4 11.53-0.98 8.25-2.35 5.9-5L5.9-5Q3.65-7.6 2.58-10.93 1.5-14.25 1.5-17.8L1.5-17.8Q1.5-21.95 2.83-25.33 4.15-28.7 6.5-31.1L6.5-31.1Q8.9-33.55 12.18-34.9 15.45-36.25 19.3-36.25L19.3-36.25Q21.35-36.25 23.23-35.9 25.1-35.55 26.95-34.95 28.8-34.35 30.7-33.6L30.7-33.6 30.7-29.95 27.2-30.6Q25.65-31.15 23.75-31.6 21.85-32.05 19.65-32.05L19.65-32.05Q15.65-32.05 12.68-30.28 9.7-28.5 8.08-25.3 6.45-22.1 6.45-17.8L6.45-17.8Q6.45-13.85 7.9-10.68 9.35-7.5 12.28-5.65 15.2-3.8 19.5-3.8L19.5-3.8Q21.9-3.8 23.98-4.53 26.05-5.25 28.05-7.05L28.05-7.05Q28.3-7.25 28.5-7.33 28.7-7.4 28.9-7.4L28.9-7.4Q29.3-7.4 29.6-7.1L29.6-7.1 31.5-5Q29.5-2.7 26.38-1.15 23.25 0.4 18.8 0.4ZM27.35-26.2L26.6-31.2 30.7-29.95 30.7-25.4 28.4-25.4Q28-25.4 27.73-25.58 27.45-25.75 27.35-26.2L27.35-26.2ZM42.9 0L38.45 0 38.45-25.35 41-25.35Q41.75-25.35 42.05-25.08 42.35-24.8 42.4-24.1L42.4-24.1 42.7-20.15Q44-22.8 45.9-24.3 47.8-25.8 50.4-25.8L50.4-25.8Q51.45-25.8 52.3-25.55 53.15-25.3 53.85-24.9L53.85-24.9 53.3-21.55Q53.25-21.25 53.02-21.1 52.8-20.95 52.5-20.95L52.5-20.95Q52.15-20.95 51.15-21.18 50.15-21.4 49.4-21.4L49.4-21.4Q47.1-21.4 45.52-20.05 43.95-18.7 42.9-16.15L42.9-16.15 42.9 0ZM46.5 0L41.4 0 41.95-3.9 45.7-3.1Q46.1-3.05 46.3-2.78 46.5-2.5 46.5-2.05L46.5-2.05 46.5 0ZM39.95 0L34.85 0 34.85-2.05Q34.85-2.5 35.05-2.78 35.25-3.05 35.65-3.1L35.65-3.1 39.4-3.9 39.95 0ZM34.85-25.35L39.95-25.35 39.4-21.45 35.65-22.25Q35.25-22.35 35.05-22.6 34.85-22.85 34.85-23.3L34.85-23.3 34.85-25.35ZM68.35 0.35L68.35 0.35Q64.7 0.35 61.97-1.3 59.25-2.95 57.75-6 56.25-9.05 56.25-13.2L56.25-13.2Q56.25-16.75 57.7-19.6 59.15-22.45 61.82-24.1 64.5-25.75 68.1-25.75L68.1-25.75Q71.25-25.75 73.6-24.35 75.95-22.95 77.27-20.43 78.6-17.9 78.6-14.4L78.6-14.4Q78.6-13.35 78.37-13 78.15-12.65 77.5-12.65L77.5-12.65 60.65-12.65Q60.65-12.5 60.65-12.33 60.65-12.15 60.65-12L60.65-12Q60.9-7.8 63-5.48 65.1-3.15 68.7-3.15L68.7-3.15Q70.25-3.15 71.77-3.78 73.3-4.4 74.47-5 75.65-5.6 76.15-5.6L76.15-5.6Q76.7-5.6 77-5.2L77-5.2 78.25-3.55Q77.25-2.25 75.57-1.38 73.9-0.5 72-0.08 70.1 0.35 68.35 0.35ZM60.8-15.45L60.8-15.45 74.6-15.45Q74.6-18.55 72.9-20.5 71.2-22.45 68.2-22.45L68.2-22.45Q64.95-22.45 63.1-20.6 61.25-18.75 60.8-15.45ZM89.19 0.4L89.19 0.4Q87.19 0.4 85.59-0.38 83.99-1.15 83.04-2.65 82.09-4.15 82.09-6.35L82.09-6.35Q82.09-7.85 82.92-9.22 83.74-10.6 85.59-11.7L85.59-11.7Q87.44-12.75 90.42-13.45 93.39-14.15 97.69-14.25L97.69-14.25 97.69-16.2Q97.69-19.15 96.42-20.68 95.14-22.2 92.69-22.2L92.69-22.2Q91.39-22.2 89.97-21.53 88.54-20.85 87.34-20.18 86.14-19.5 85.44-19.5L85.44-19.5Q84.99-19.5 84.67-19.75 84.34-20 84.14-20.35L84.14-20.35 83.34-21.75Q85.44-23.8 87.87-24.8 90.29-25.8 93.24-25.8L93.24-25.8Q96.09-25.8 98.04-24.6 99.99-23.4 101.02-21.25 102.04-19.1 102.04-16.2L102.04-16.2 102.04 0 100.09 0Q99.44 0 99.04-0.2 98.64-0.4 98.49-1.05L98.49-1.05 97.99-3.4Q95.99-1.6 93.99-0.6 91.99 0.4 89.19 0.4ZM90.49-2.75L90.49-2.75Q92.74-2.75 94.44-3.65 96.14-4.55 97.69-6.15L97.69-6.15 97.69-11.4Q95.09-11.35 92.99-11.03 90.89-10.7 89.42-10.13 87.94-9.55 87.17-8.68 86.39-7.8 86.39-6.55L86.39-6.55Q86.39-4.55 87.57-3.65 88.74-2.75 90.49-2.75ZM105.64 0L100.54 0 101.09-3.9 104.84-3.1Q105.24-3.05 105.44-2.78 105.64-2.5 105.64-2.05L105.64-2.05 105.64 0ZM117.19 0.4L117.19 0.4Q114.19 0.4 112.57-1.28 110.94-2.95 110.94-6.1L110.94-6.1 110.94-21.6 107.89-21.6Q107.49-21.6 107.22-21.85 106.94-22.1 106.94-22.6L106.94-22.6 106.94-24.35 111.09-24.9 112.14-32.7Q112.24-33.55 113.14-33.55L113.14-33.55 115.39-33.55 115.39-24.85 122.64-24.85 122.64-21.6 115.39-21.6 115.39-6.4Q115.39-4.8 116.17-4.03 116.94-3.25 118.19-3.25L118.19-3.25Q118.74-3.25 119.39-3.55 120.04-3.85 120.59-4.15 121.14-4.45 121.39-4.45L121.39-4.45Q121.74-4.45 121.99-4.05L121.99-4.05 123.29-1.9Q122.14-0.85 120.52-0.23 118.89 0.4 117.19 0.4ZM133.89 0L129.44 0 129.44-25.35 133.89-25.35 133.89 0ZM130.94 0L125.84 0 125.84-2.05Q125.84-2.5 126.04-2.78 126.24-3.05 126.64-3.1L126.64-3.1 130.39-3.9 130.94 0ZM137.49 0L132.39 0 132.94-3.9 136.69-3.1Q137.09-3.05 137.29-2.78 137.49-2.5 137.49-2.05L137.49-2.05 137.49 0ZM125.84-25.35L130.94-25.35 130.39-21.45 126.64-22.25Q126.24-22.35 126.04-22.6 125.84-22.85 125.84-23.3L125.84-23.3 125.84-25.35ZM131.59-30.15L131.59-30.15Q130.34-30.15 129.39-31.1 128.44-32.05 128.44-33.3L128.44-33.3Q128.44-34.6 129.39-35.55 130.34-36.5 131.59-36.5L131.59-36.5Q132.89-36.5 133.84-35.55 134.79-34.6 134.79-33.3L134.79-33.3Q134.79-32.05 133.84-31.1 132.89-30.15 131.59-30.15ZM147.59 0L143.14 0 143.14-25.35 145.79-25.35Q146.79-25.35 146.99-24.4L146.99-24.4 147.34-21.65Q148.99-23.5 151.04-24.63 153.09-25.75 155.74-25.75L155.74-25.75Q158.54-25.75 160.41-24.55 162.29-23.35 163.26-21.18 164.24-19 164.24-16.15L164.24-16.15 164.24 0 159.79 0 159.79-16.15Q159.79-19 158.46-20.6 157.14-22.2 154.44-22.2L154.44-22.2Q152.49-22.2 150.76-21.25 149.04-20.3 147.59-18.65L147.59-18.65 147.59 0ZM144.64 0L139.54 0 139.54-2.05Q139.54-2.5 139.74-2.78 139.94-3.05 140.34-3.1L140.34-3.1 144.09-3.9 144.64 0ZM151.19 0L146.09 0 146.64-3.9 150.39-3.1Q150.79-3.05 150.99-2.78 151.19-2.5 151.19-2.05L151.19-2.05 151.19 0ZM167.84 0L162.74 0 163.29-3.9 167.04-3.1Q167.44-3.05 167.64-2.78 167.84-2.5 167.84-2.05L167.84-2.05 167.84 0ZM139.54-25.35L144.64-25.35 144.09-21.45 140.34-22.25Q139.94-22.35 139.74-22.6 139.54-22.85 139.54-23.3L139.54-23.3 139.54-25.35ZM180.03-25.75L180.03-25.75Q181.68-25.75 183.11-25.4 184.53-25.05 185.73-24.35L185.73-24.35 192.58-24.35 192.58-22.7Q192.58-22.3 192.33-22.03 192.08-21.75 191.53-21.65L191.53-21.65 188.68-21.25Q189.53-19.55 189.53-17.6L189.53-17.6Q189.53-15.1 188.28-13.28 187.03-11.45 184.88-10.45 182.73-9.45 180.03-9.45L180.03-9.45Q179.13-9.45 178.31-9.55 177.48-9.65 176.68-9.85L176.68-9.85Q175.88-9.35 175.46-8.78 175.03-8.2 175.03-7.65L175.03-7.65Q175.03-6.7 175.81-6.25 176.58-5.8 177.86-5.63 179.13-5.45 180.63-5.4 182.13-5.35 183.53-5.25L183.53-5.25Q185.83-5.05 187.76-4.55 189.68-4.05 190.86-2.85 192.03-1.65 192.03 0.65L192.03 0.65Q192.03 3.05 190.48 4.98 188.93 6.9 186.26 8.03 183.58 9.15 180.18 9.15L180.18 9.15Q176.88 9.15 174.38 8.3 171.88 7.45 170.48 5.95 169.08 4.45 169.08 2.45L169.08 2.45Q169.08 0.55 170.28-0.78 171.48-2.1 173.53-2.85L173.53-2.85Q172.48-3.35 171.83-4.2 171.18-5.05 171.18-6.45L171.18-6.45Q171.18-7.6 172.08-8.8 172.98-10 174.43-10.75L174.43-10.75Q172.53-11.8 171.48-13.55 170.43-15.3 170.43-17.6L170.43-17.6Q170.43-20.15 171.68-21.98 172.93-23.8 175.11-24.78 177.28-25.75 180.03-25.75ZM187.93 1.4L187.93 1.4Q187.93-0.05 186.76-0.68 185.58-1.3 183.93-1.5L183.93-1.5Q183.38-1.6 182.38-1.65 181.38-1.7 180.21-1.78 179.03-1.85 177.96-1.95 176.88-2.05 176.18-2.15L176.18-2.15Q174.78-1.45 173.88-0.48 172.98 0.5 172.98 1.85L172.98 1.85Q172.98 3.1 173.88 4.03 174.78 4.95 176.43 5.43 178.08 5.9 180.23 5.9L180.23 5.9Q182.43 5.9 184.16 5.38 185.88 4.85 186.91 3.85 187.93 2.85 187.93 1.4ZM180.03-12.4L180.03-12.4Q182.63-12.4 184.08-13.8 185.53-15.2 185.53-17.5L185.53-17.5Q185.53-19.8 184.13-21.18 182.73-22.55 180.03-22.55L180.03-22.55Q177.33-22.55 175.93-21.18 174.53-19.8 174.53-17.5L174.53-17.5Q174.53-15.2 175.98-13.8 177.43-12.4 180.03-12.4ZM234.03 0L211.93 0 211.93-35.85 234.03-35.85 234.03-31.9 216.83-31.9 216.83-19.95 230.03-19.95 230.03-16.15 216.83-16.15 216.83-3.95 234.03-3.95 234.03 0ZM234.03-3.95L229.93-2.7 230.68-7.7Q230.78-8.15 231.05-8.33 231.33-8.5 231.73-8.5L231.73-8.5 234.03-8.5 234.03-3.95ZM230.68-28.15L229.93-33.15 234.03-31.9 234.03-27.35 231.73-27.35Q231.33-27.35 231.05-27.53 230.78-27.7 230.68-28.15L230.68-28.15ZM208.33-35.85L213.43-35.85 212.88-31.95 209.13-32.75Q208.73-32.85 208.53-33.1 208.33-33.35 208.33-33.8L208.33-33.8 208.33-35.85ZM213.43 0L208.33 0 208.33-2.05Q208.33-2.5 208.53-2.78 208.73-3.05 209.13-3.1L209.13-3.1 212.88-3.9 213.43 0ZM245.72 0L241.28 0 241.28-36.85 245.72-36.85 245.72 0ZM242.78 0L237.68 0 237.68-2.05Q237.68-2.5 237.88-2.78 238.08-3.05 238.47-3.1L238.47-3.1 242.22-3.9 242.78 0ZM249.33 0L244.22 0 244.78-3.9 248.53-3.1Q248.93-3.05 249.13-2.78 249.33-2.5 249.33-2.05L249.33-2.05 249.33 0ZM237.68-36.85L242.78-36.85 242.22-32.95 238.47-33.75Q238.08-33.85 237.88-34.1 237.68-34.35 237.68-34.8L237.68-34.8 237.68-36.85ZM264.02 0.35L264.02 0.35Q260.37 0.35 257.65-1.3 254.92-2.95 253.42-6 251.92-9.05 251.92-13.2L251.92-13.2Q251.92-16.75 253.37-19.6 254.82-22.45 257.5-24.1 260.17-25.75 263.77-25.75L263.77-25.75Q266.92-25.75 269.27-24.35 271.62-22.95 272.95-20.43 274.27-17.9 274.27-14.4L274.27-14.4Q274.27-13.35 274.05-13 273.82-12.65 273.17-12.65L273.17-12.65 256.32-12.65Q256.32-12.5 256.32-12.33 256.32-12.15 256.32-12L256.32-12Q256.57-7.8 258.67-5.48 260.77-3.15 264.37-3.15L264.37-3.15Q265.92-3.15 267.45-3.78 268.97-4.4 270.15-5 271.32-5.6 271.82-5.6L271.82-5.6Q272.37-5.6 272.67-5.2L272.67-5.2 273.92-3.55Q272.92-2.25 271.25-1.38 269.57-0.5 267.67-0.08 265.77 0.35 264.02 0.35ZM256.47-15.45L256.47-15.45 270.27-15.45Q270.27-18.55 268.57-20.5 266.87-22.45 263.87-22.45L263.87-22.45Q260.62-22.45 258.77-20.6 256.92-18.75 256.47-15.45ZM287.52-25.75L287.52-25.75Q289.17-25.75 290.59-25.4 292.02-25.05 293.22-24.35L293.22-24.35 300.07-24.35 300.07-22.7Q300.07-22.3 299.82-22.03 299.57-21.75 299.02-21.65L299.02-21.65 296.17-21.25Q297.02-19.55 297.02-17.6L297.02-17.6Q297.02-15.1 295.77-13.28 294.52-11.45 292.37-10.45 290.22-9.45 287.52-9.45L287.52-9.45Q286.62-9.45 285.79-9.55 284.97-9.65 284.17-9.85L284.17-9.85Q283.37-9.35 282.94-8.78 282.52-8.2 282.52-7.65L282.52-7.65Q282.52-6.7 283.29-6.25 284.07-5.8 285.34-5.63 286.62-5.45 288.12-5.4 289.62-5.35 291.02-5.25L291.02-5.25Q293.32-5.05 295.24-4.55 297.17-4.05 298.34-2.85 299.52-1.65 299.52 0.65L299.52 0.65Q299.52 3.05 297.97 4.98 296.42 6.9 293.74 8.03 291.07 9.15 287.67 9.15L287.67 9.15Q284.37 9.15 281.87 8.3 279.37 7.45 277.97 5.95 276.57 4.45 276.57 2.45L276.57 2.45Q276.57 0.55 277.77-0.78 278.97-2.1 281.02-2.85L281.02-2.85Q279.97-3.35 279.32-4.2 278.67-5.05 278.67-6.45L278.67-6.45Q278.67-7.6 279.57-8.8 280.47-10 281.92-10.75L281.92-10.75Q280.02-11.8 278.97-13.55 277.92-15.3 277.92-17.6L277.92-17.6Q277.92-20.15 279.17-21.98 280.42-23.8 282.59-24.78 284.77-25.75 287.52-25.75ZM295.42 1.4L295.42 1.4Q295.42-0.05 294.24-0.68 293.07-1.3 291.42-1.5L291.42-1.5Q290.87-1.6 289.87-1.65 288.87-1.7 287.69-1.78 286.52-1.85 285.44-1.95 284.37-2.05 283.67-2.15L283.67-2.15Q282.27-1.45 281.37-0.48 280.47 0.5 280.47 1.85L280.47 1.85Q280.47 3.1 281.37 4.03 282.27 4.95 283.92 5.43 285.57 5.9 287.72 5.9L287.72 5.9Q289.92 5.9 291.64 5.38 293.37 4.85 294.39 3.85 295.42 2.85 295.42 1.4ZM287.52-12.4L287.52-12.4Q290.12-12.4 291.57-13.8 293.02-15.2 293.02-17.5L293.02-17.5Q293.02-19.8 291.62-21.18 290.22-22.55 287.52-22.55L287.52-22.55Q284.82-22.55 283.42-21.18 282.02-19.8 282.02-17.5L282.02-17.5Q282.02-15.2 283.47-13.8 284.92-12.4 287.52-12.4ZM310.07 0.4L310.07 0.4Q308.07 0.4 306.47-0.38 304.87-1.15 303.92-2.65 302.97-4.15 302.97-6.35L302.97-6.35Q302.97-7.85 303.79-9.22 304.62-10.6 306.47-11.7L306.47-11.7Q308.32-12.75 311.29-13.45 314.27-14.15 318.57-14.25L318.57-14.25 318.57-16.2Q318.57-19.15 317.29-20.68 316.02-22.2 313.57-22.2L313.57-22.2Q312.27-22.2 310.84-21.53 309.42-20.85 308.22-20.18 307.02-19.5 306.32-19.5L306.32-19.5Q305.87-19.5 305.54-19.75 305.22-20 305.02-20.35L305.02-20.35 304.22-21.75Q306.32-23.8 308.74-24.8 311.17-25.8 314.12-25.8L314.12-25.8Q316.97-25.8 318.92-24.6 320.87-23.4 321.89-21.25 322.92-19.1 322.92-16.2L322.92-16.2 322.92 0 320.97 0Q320.32 0 319.92-0.2 319.52-0.4 319.37-1.05L319.37-1.05 318.87-3.4Q316.87-1.6 314.87-0.6 312.87 0.4 310.07 0.4ZM311.37-2.75L311.37-2.75Q313.62-2.75 315.32-3.65 317.02-4.55 318.57-6.15L318.57-6.15 318.57-11.4Q315.97-11.35 313.87-11.03 311.77-10.7 310.29-10.13 308.82-9.55 308.04-8.68 307.27-7.8 307.27-6.55L307.27-6.55Q307.27-4.55 308.44-3.65 309.62-2.75 311.37-2.75ZM326.52 0L321.42 0 321.97-3.9 325.72-3.1Q326.12-3.05 326.32-2.78 326.52-2.5 326.52-2.05L326.52-2.05 326.52 0ZM336.61 0L332.16 0 332.16-25.35 334.81-25.35Q335.81-25.35 336.01-24.4L336.01-24.4 336.36-21.65Q338.01-23.5 340.06-24.63 342.11-25.75 344.76-25.75L344.76-25.75Q347.56-25.75 349.44-24.55 351.31-23.35 352.29-21.18 353.26-19 353.26-16.15L353.26-16.15 353.26 0 348.81 0 348.81-16.15Q348.81-19 347.49-20.6 346.16-22.2 343.46-22.2L343.46-22.2Q341.51-22.2 339.79-21.25 338.06-20.3 336.61-18.65L336.61-18.65 336.61 0ZM333.66 0L328.56 0 328.56-2.05Q328.56-2.5 328.76-2.78 328.96-3.05 329.36-3.1L329.36-3.1 333.11-3.9 333.66 0ZM340.21 0L335.11 0 335.66-3.9 339.41-3.1Q339.81-3.05 340.01-2.78 340.21-2.5 340.21-2.05L340.21-2.05 340.21 0ZM356.86 0L351.76 0 352.31-3.9 356.06-3.1Q356.46-3.05 356.66-2.78 356.86-2.5 356.86-2.05L356.86-2.05 356.86 0ZM328.56-25.35L333.66-25.35 333.11-21.45 329.36-22.25Q328.96-22.35 328.76-22.6 328.56-22.85 328.56-23.3L328.56-23.3 328.56-25.35ZM370.41 0.35L370.41 0.35Q367.11 0.35 364.59-1.28 362.06-2.9 360.64-5.85 359.21-8.8 359.21-12.7L359.21-12.7Q359.21-16.5 360.56-19.45 361.91-22.4 364.56-24.08 367.21-25.75 371.16-25.75L371.16-25.75Q372.71-25.75 374.76-25.23 376.81-24.7 378.66-23.95L378.66-23.95 378.66-21.25 376.06-21.4Q375.06-21.75 373.94-22 372.81-22.25 371.41-22.25L371.41-22.25Q368.86-22.25 367.19-21.08 365.51-19.9 364.66-17.75 363.81-15.6 363.81-12.7L363.81-12.7Q363.81-8.35 365.71-5.73 367.61-3.1 371.16-3.1L371.16-3.1Q373.11-3.1 374.36-3.73 375.61-4.35 376.41-4.98 377.21-5.6 377.66-5.6L377.66-5.6Q377.91-5.6 378.14-5.5 378.36-5.4 378.51-5.2L378.51-5.2 379.76-3.55Q378.11-1.55 375.66-0.6 373.21 0.35 370.41 0.35ZM375.96-18.15L375.46-21.9 378.66-21.25 378.66-17.35 377.01-17.35Q376.51-17.35 376.26-17.57 376.01-17.8 375.96-18.15L375.96-18.15ZM394.96 0.35L394.96 0.35Q391.31 0.35 388.58-1.3 385.86-2.95 384.36-6 382.86-9.05 382.86-13.2L382.86-13.2Q382.86-16.75 384.31-19.6 385.76-22.45 388.43-24.1 391.11-25.75 394.71-25.75L394.71-25.75Q397.86-25.75 400.21-24.35 402.56-22.95 403.88-20.43 405.21-17.9 405.21-14.4L405.21-14.4Q405.21-13.35 404.98-13 404.76-12.65 404.11-12.65L404.11-12.65 387.26-12.65Q387.26-12.5 387.26-12.33 387.26-12.15 387.26-12L387.26-12Q387.51-7.8 389.61-5.48 391.71-3.15 395.31-3.15L395.31-3.15Q396.86-3.15 398.38-3.78 399.91-4.4 401.08-5 402.26-5.6 402.76-5.6L402.76-5.6Q403.31-5.6 403.61-5.2L403.61-5.2 404.86-3.55Q403.86-2.25 402.18-1.38 400.51-0.5 398.61-0.08 396.71 0.35 394.96 0.35ZM387.41-15.45L387.41-15.45 401.21-15.45Q401.21-18.55 399.51-20.5 397.81-22.45 394.81-22.45L394.81-22.45Q391.56-22.45 389.71-20.6 387.86-18.75 387.41-15.45ZM429.35 0L424.9 0 424.9-25.35 429.35-25.35 429.35 0ZM426.4 0L421.3 0 421.3-2.05Q421.3-2.5 421.5-2.78 421.7-3.05 422.1-3.1L422.1-3.1 425.85-3.9 426.4 0ZM432.95 0L427.85 0 428.4-3.9 432.15-3.1Q432.55-3.05 432.75-2.78 432.95-2.5 432.95-2.05L432.95-2.05 432.95 0ZM421.3-25.35L426.4-25.35 425.85-21.45 422.1-22.25Q421.7-22.35 421.5-22.6 421.3-22.85 421.3-23.3L421.3-23.3 421.3-25.35ZM427.05-30.15L427.05-30.15Q425.8-30.15 424.85-31.1 423.9-32.05 423.9-33.3L423.9-33.3Q423.9-34.6 424.85-35.55 425.8-36.5 427.05-36.5L427.05-36.5Q428.35-36.5 429.3-35.55 430.25-34.6 430.25-33.3L430.25-33.3Q430.25-32.05 429.3-31.1 428.35-30.15 427.05-30.15ZM443.05 0L438.6 0 438.6-25.35 441.25-25.35Q442.25-25.35 442.45-24.4L442.45-24.4 442.8-21.65Q444.45-23.5 446.5-24.63 448.55-25.75 451.2-25.75L451.2-25.75Q454-25.75 455.88-24.55 457.75-23.35 458.73-21.18 459.7-19 459.7-16.15L459.7-16.15 459.7 0 455.25 0 455.25-16.15Q455.25-19 453.93-20.6 452.6-22.2 449.9-22.2L449.9-22.2Q447.95-22.2 446.23-21.25 444.5-20.3 443.05-18.65L443.05-18.65 443.05 0ZM440.1 0L435 0 435-2.05Q435-2.5 435.2-2.78 435.4-3.05 435.8-3.1L435.8-3.1 439.55-3.9 440.1 0ZM446.65 0L441.55 0 442.1-3.9 445.85-3.1Q446.25-3.05 446.45-2.78 446.65-2.5 446.65-2.05L446.65-2.05 446.65 0ZM463.3 0L458.2 0 458.75-3.9 462.5-3.1Q462.9-3.05 463.1-2.78 463.3-2.5 463.3-2.05L463.3-2.05 463.3 0ZM435-25.35L440.1-25.35 439.55-21.45 435.8-22.25Q435.4-22.35 435.2-22.6 435-22.85 435-23.3L435-23.3 435-25.35ZM504.3 0L482.2 0 482.2-35.85 504.3-35.85 504.3-31.9 487.1-31.9 487.1-19.95 500.3-19.95 500.3-16.15 487.1-16.15 487.1-3.95 504.3-3.95 504.3 0ZM504.3-3.95L500.2-2.7 500.95-7.7Q501.05-8.15 501.32-8.33 501.6-8.5 502-8.5L502-8.5 504.3-8.5 504.3-3.95ZM500.95-28.15L500.2-33.15 504.3-31.9 504.3-27.35 502-27.35Q501.6-27.35 501.32-27.53 501.05-27.7 500.95-28.15L500.95-28.15ZM478.6-35.85L483.7-35.85 483.15-31.95 479.4-32.75Q479-32.85 478.8-33.1 478.6-33.35 478.6-33.8L478.6-33.8 478.6-35.85ZM483.7 0L478.6 0 478.6-2.05Q478.6-2.5 478.8-2.78 479-3.05 479.4-3.1L479.4-3.1 483.15-3.9 483.7 0ZM523.5 0L519.5 0 509.15-25.35 512.8-25.35Q513.35-25.35 513.7-25.08 514.05-24.8 514.2-24.4L514.2-24.4 520.6-8.1Q520.85-7.45 521.07-6.6 521.3-5.75 521.55-4.55L521.55-4.55Q521.75-5.4 521.97-6.3 522.2-7.2 522.55-8.1L522.55-8.1 529.05-24.4Q529.2-24.8 529.52-25.08 529.85-25.35 530.35-25.35L530.35-25.35 533.85-25.35 523.5 0ZM516-24.1L512.25-24.1 512.25-25.35 516-25.35 516-24.1ZM531.55-24.1L527.8-24.1 527.8-25.35 531.55-25.35 531.55-24.1ZM507.44-25.35L512.55-25.35 512-21.45 508.25-22.25Q507.85-22.35 507.65-22.6 507.44-22.85 507.44-23.3L507.44-23.3 507.44-25.35ZM513.7-25.35L518.8-25.35 518.8-23.3Q518.8-22.85 518.6-22.6 518.39-22.35 518-22.25L518-22.25 514.25-21.45 513.7-25.35ZM524.2-25.35L529.3-25.35 528.75-21.45 525-22.25Q524.6-22.35 524.39-22.6 524.2-22.85 524.2-23.3L524.2-23.3 524.2-25.35ZM530.45-25.35L535.55-25.35 535.55-23.3Q535.55-22.85 535.35-22.6 535.14-22.35 534.75-22.25L534.75-22.25 531-21.45 530.45-25.35ZM549.59 0.35L549.59 0.35Q545.94 0.35 543.22-1.3 540.49-2.95 538.99-6 537.49-9.05 537.49-13.2L537.49-13.2Q537.49-16.75 538.94-19.6 540.39-22.45 543.07-24.1 545.74-25.75 549.34-25.75L549.34-25.75Q552.49-25.75 554.84-24.35 557.19-22.95 558.52-20.43 559.84-17.9 559.84-14.4L559.84-14.4Q559.84-13.35 559.62-13 559.39-12.65 558.74-12.65L558.74-12.65 541.89-12.65Q541.89-12.5 541.89-12.33 541.89-12.15 541.89-12L541.89-12Q542.14-7.8 544.24-5.48 546.34-3.15 549.94-3.15L549.94-3.15Q551.49-3.15 553.02-3.78 554.54-4.4 555.72-5 556.89-5.6 557.39-5.6L557.39-5.6Q557.94-5.6 558.24-5.2L558.24-5.2 559.49-3.55Q558.49-2.25 556.82-1.38 555.14-0.5 553.24-0.08 551.34 0.35 549.59 0.35ZM542.04-15.45L542.04-15.45 555.84-15.45Q555.84-18.55 554.14-20.5 552.44-22.45 549.44-22.45L549.44-22.45Q546.19-22.45 544.34-20.6 542.49-18.75 542.04-15.45ZM570.99 0L566.54 0 566.54-25.35 569.09-25.35Q569.84-25.35 570.14-25.08 570.44-24.8 570.49-24.1L570.49-24.1 570.79-20.15Q572.09-22.8 573.99-24.3 575.89-25.8 578.49-25.8L578.49-25.8Q579.54-25.8 580.39-25.55 581.24-25.3 581.94-24.9L581.94-24.9 581.39-21.55Q581.34-21.25 581.12-21.1 580.89-20.95 580.59-20.95L580.59-20.95Q580.24-20.95 579.24-21.18 578.24-21.4 577.49-21.4L577.49-21.4Q575.19-21.4 573.62-20.05 572.04-18.7 570.99-16.15L570.99-16.15 570.99 0ZM574.59 0L569.49 0 570.04-3.9 573.79-3.1Q574.19-3.05 574.39-2.78 574.59-2.5 574.59-2.05L574.59-2.05 574.59 0ZM568.04 0L562.94 0 562.94-2.05Q562.94-2.5 563.14-2.78 563.34-3.05 563.74-3.1L563.74-3.1 567.49-3.9 568.04 0ZM562.94-25.35L568.04-25.35 567.49-21.45 563.74-22.25Q563.34-22.35 563.14-22.6 562.94-22.85 562.94-23.3L562.94-23.3 562.94-25.35ZM594.29 8.6L590.99 8.6 595.59-1.5 585.14-25.35 588.99-25.35Q589.59-25.35 589.91-25.05 590.24-24.75 590.39-24.4L590.39-24.4 597.14-8.45Q597.29-8.1 597.49-7.45 597.69-6.8 597.84-6.25L597.84-6.25Q597.94-6.65 598.04-7 598.14-7.35 598.29-7.73 598.44-8.1 598.59-8.5L598.59-8.5 605.14-24.4Q605.29-24.8 605.66-25.08 606.04-25.35 606.44-25.35L606.44-25.35 609.99-25.35 595.89 7.5Q595.69 8 595.34 8.3 594.99 8.6 594.29 8.6L594.29 8.6ZM592.09-24.1L588.34-24.1 588.34-25.35 592.09-25.35 592.09-24.1ZM607.59-24.1L603.84-24.1 603.84-25.35 607.59-25.35 607.59-24.1ZM583.54-25.35L588.64-25.35 588.09-21.45 584.34-22.25Q583.94-22.35 583.74-22.6 583.54-22.85 583.54-23.3L583.54-23.3 583.54-25.35ZM589.79-25.35L594.89-25.35 594.89-23.3Q594.89-22.85 594.69-22.6 594.49-22.35 594.09-22.25L594.09-22.25 590.34-21.45 589.79-25.35ZM600.24-25.35L605.34-25.35 604.79-21.45 601.04-22.25Q600.64-22.35 600.44-22.6 600.24-22.85 600.24-23.3L600.24-23.3 600.24-25.35ZM606.49-25.35L611.59-25.35 611.59-23.3Q611.59-22.85 611.39-22.6 611.19-22.35 610.79-22.25L610.79-22.25 607.04-21.45 606.49-25.35ZM645.28 0.4L645.28 0.4Q641.33 0.4 637.91-0.83 634.48-2.05 631.98-4.65L631.98-4.65Q629.63-7.1 628.31-10.53 626.98-13.95 626.98-18L626.98-18Q626.98-22 628.28-25.38 629.58-28.75 631.98-31.2L631.98-31.2Q634.33-33.6 637.73-34.93 641.13-36.25 645.33-36.25L645.33-36.25Q647.58-36.25 649.68-35.9 651.78-35.55 653.86-34.95 655.93-34.35 658.03-33.6L658.03-33.6 658.03-29.95 654.18-30.65Q652.43-31.2 650.33-31.65 648.23-32.1 645.68-32.1L645.68-32.1Q641.28-32.1 638.21-30.33 635.13-28.55 633.53-25.35 631.93-22.15 631.93-17.85L631.93-17.85Q631.93-13.5 633.56-10.3 635.18-7.1 638.23-5.33 641.28-3.55 645.53-3.55L645.53-3.55Q647.93-3.55 650.03-4.13 652.13-4.7 653.93-5.65L653.93-5.65 653.93-13.5 648.38-13.5Q647.93-13.5 647.63-13.78 647.33-14.05 647.33-14.45L647.33-14.45 647.33-17.2 658.33-17.2 658.33-3.5Q655.98-1.7 652.56-0.65 649.13 0.4 645.28 0.4ZM654.68-26.2L653.93-31.2 658.03-29.95 658.03-25.4 655.73-25.4Q655.33-25.4 655.06-25.58 654.78-25.75 654.68-26.2L654.68-26.2ZM671.53 0L667.08 0 667.08-25.35 669.63-25.35Q670.38-25.35 670.68-25.08 670.98-24.8 671.03-24.1L671.03-24.1 671.33-20.15Q672.63-22.8 674.53-24.3 676.43-25.8 679.03-25.8L679.03-25.8Q680.08-25.8 680.93-25.55 681.78-25.3 682.48-24.9L682.48-24.9 681.93-21.55Q681.88-21.25 681.65-21.1 681.43-20.95 681.13-20.95L681.13-20.95Q680.78-20.95 679.78-21.18 678.78-21.4 678.03-21.4L678.03-21.4Q675.73-21.4 674.15-20.05 672.58-18.7 671.53-16.15L671.53-16.15 671.53 0ZM675.13 0L670.03 0 670.58-3.9 674.33-3.1Q674.73-3.05 674.93-2.78 675.13-2.5 675.13-2.05L675.13-2.05 675.13 0ZM668.58 0L663.48 0 663.48-2.05Q663.48-2.5 663.68-2.78 663.88-3.05 664.28-3.1L664.28-3.1 668.03-3.9 668.58 0ZM663.48-25.35L668.58-25.35 668.03-21.45 664.28-22.25Q663.88-22.35 663.68-22.6 663.48-22.85 663.48-23.3L663.48-23.3 663.48-25.35ZM691.13 0.4L691.13 0.4Q689.13 0.4 687.53-0.38 685.93-1.15 684.98-2.65 684.03-4.15 684.03-6.35L684.03-6.35Q684.03-7.85 684.85-9.22 685.68-10.6 687.53-11.7L687.53-11.7Q689.38-12.75 692.35-13.45 695.33-14.15 699.63-14.25L699.63-14.25 699.63-16.2Q699.63-19.15 698.35-20.68 697.08-22.2 694.63-22.2L694.63-22.2Q693.33-22.2 691.9-21.53 690.48-20.85 689.28-20.18 688.08-19.5 687.38-19.5L687.38-19.5Q686.93-19.5 686.6-19.75 686.28-20 686.08-20.35L686.08-20.35 685.28-21.75Q687.38-23.8 689.8-24.8 692.23-25.8 695.18-25.8L695.18-25.8Q698.03-25.8 699.98-24.6 701.93-23.4 702.95-21.25 703.98-19.1 703.98-16.2L703.98-16.2 703.98 0 702.03 0Q701.38 0 700.98-0.2 700.58-0.4 700.43-1.05L700.43-1.05 699.93-3.4Q697.93-1.6 695.93-0.6 693.93 0.4 691.13 0.4ZM692.43-2.75L692.43-2.75Q694.68-2.75 696.38-3.65 698.08-4.55 699.63-6.15L699.63-6.15 699.63-11.4Q697.03-11.35 694.93-11.03 692.83-10.7 691.35-10.13 689.88-9.55 689.1-8.68 688.33-7.8 688.33-6.55L688.33-6.55Q688.33-4.55 689.5-3.65 690.68-2.75 692.43-2.75ZM707.58 0L702.48 0 703.03-3.9 706.78-3.1Q707.18-3.05 707.38-2.78 707.58-2.5 707.58-2.05L707.58-2.05 707.58 0ZM717.67 0L713.22 0 713.22-25.35 717.67-25.35 717.67 0ZM714.72 0L709.62 0 709.62-2.05Q709.62-2.5 709.82-2.78 710.02-3.05 710.42-3.1L710.42-3.1 714.17-3.9 714.72 0ZM721.27 0L716.17 0 716.72-3.9 720.47-3.1Q720.87-3.05 721.07-2.78 721.27-2.5 721.27-2.05L721.27-2.05 721.27 0ZM709.62-25.35L714.72-25.35 714.17-21.45 710.42-22.25Q710.02-22.35 709.82-22.6 709.62-22.85 709.62-23.3L709.62-23.3 709.62-25.35ZM715.37-30.15L715.37-30.15Q714.12-30.15 713.17-31.1 712.22-32.05 712.22-33.3L712.22-33.3Q712.22-34.6 713.17-35.55 714.12-36.5 715.37-36.5L715.37-36.5Q716.67-36.5 717.62-35.55 718.57-34.6 718.57-33.3L718.57-33.3Q718.57-32.05 717.62-31.1 716.67-30.15 715.37-30.15ZM731.37 0L726.92 0 726.92-25.35 729.57-25.35Q730.57-25.35 730.77-24.4L730.77-24.4 731.12-21.65Q732.77-23.5 734.82-24.63 736.87-25.75 739.52-25.75L739.52-25.75Q742.32-25.75 744.2-24.55 746.07-23.35 747.05-21.18 748.02-19 748.02-16.15L748.02-16.15 748.02 0 743.57 0 743.57-16.15Q743.57-19 742.25-20.6 740.92-22.2 738.22-22.2L738.22-22.2Q736.27-22.2 734.55-21.25 732.82-20.3 731.37-18.65L731.37-18.65 731.37 0ZM728.42 0L723.32 0 723.32-2.05Q723.32-2.5 723.52-2.78 723.72-3.05 724.12-3.1L724.12-3.1 727.87-3.9 728.42 0ZM734.97 0L729.87 0 730.42-3.9 734.17-3.1Q734.57-3.05 734.77-2.78 734.97-2.5 734.97-2.05L734.97-2.05 734.97 0ZM751.62 0L746.52 0 747.07-3.9 750.82-3.1Q751.22-3.05 751.42-2.78 751.62-2.5 751.62-2.05L751.62-2.05 751.62 0ZM723.32-25.35L728.42-25.35 727.87-21.45 724.12-22.25Q723.72-22.35 723.52-22.6 723.32-22.85 723.32-23.3L723.32-23.3 723.32-25.35Z" opacity="1" transform="matrix(1,0,0,1,0,0)" fill="#ede1d1" class="slogan-text-1" data-fill-palette-color="quaternary" id="text-1"></path></svg></g></svg></g></svg></g></svg></g><g transform="matrix(1,0,0,1,40.713262274387006,0)"><svg viewBox="0 0 131.7319166783831 51.26567090733742" height="51.26567090733742" width="131.7319166783831"><g><svg xmlns="http://www.w3.org/2000/svg" xmlns:xlink="http://www.w3.org/1999/xlink" version="1.1" x="0" y="0" viewBox="5 32.475 90 35.025" enable-background="new 0 0 100 100" xml:space="preserve" height="51.26567090733742" width="131.7319166783831" class="icon-icon-0" data-fill-palette-color="quaternary" id="icon-0"><path d="M93.6 52.7L51.1 32.7C50.4 32.4 49.6 32.4 49 32.7L6.5 52.7C5.6 53.2 5 54 5 55V65C5 66.4 6.1 67.5 7.5 67.5H92.5C93.9 67.5 95 66.4 95 65V55C95 54 94.4 53.2 93.6 52.7M48.8 54.2C37.3 60.1 23.8 60.5 12 55.7L48.8 38.4zM51.3 38.4L88.1 55.7C76.2 60.6 62.8 60.1 51.3 54.2zM10 62.5V57.6C16 60.2 22.4 61.6 28.8 61.6 36.1 61.6 43.4 59.9 50.1 56.5 56.8 59.9 64.1 61.6 71.4 61.6 77.8 61.6 84.2 60.3 90.2 57.6V62.5z" fill="#ede1d1" data-fill-palette-color="quaternary"></path></svg></g></svg></g><g></g></svg></g></svg></g></svg></g></svg></g><defs></defs></svg><rect width="342.85155851775386" height="342.85155851775386" fill="none" stroke="none" visibility="hidden"></rect></g></svg></g></svg>