<?xml version="1.0" encoding="utf-8" ?>
<svg xmlns="http://www.w3.org/2000/svg" xmlns:xlink="http://www.w3.org/1999/xlink" width="1024" height="1024">
	<path fill="#895D47" d="M503.559 347.762Q507.739 347.554 511.924 347.551Q516.109 347.548 520.289 347.75Q524.47 347.953 528.635 348.36Q532.8 348.767 536.94 349.378Q541.081 349.989 545.186 350.802Q549.291 351.616 553.352 352.629Q557.412 353.643 561.418 354.855Q565.424 356.066 569.366 357.473Q573.307 358.88 577.175 360.478Q581.043 362.076 584.828 363.862Q588.613 365.648 592.306 367.618Q595.999 369.587 599.59 371.736Q603.182 373.884 606.664 376.206Q610.146 378.528 613.51 381.017Q616.874 383.507 620.111 386.159Q623.349 388.811 626.453 391.618Q629.557 394.426 632.519 397.382Q635.481 400.338 638.295 403.436Q641.109 406.534 643.767 409.767Q646.426 412.999 648.922 416.358Q651.419 419.717 653.748 423.194Q656.077 426.671 658.233 430.258Q660.388 433.846 662.366 437.534Q664.343 441.223 666.136 445.004Q667.93 448.786 669.536 452.65Q671.143 456.515 672.557 460.454Q673.972 464.392 675.192 468.396Q676.411 472.399 677.433 476.458Q678.455 480.516 679.277 484.62Q680.099 488.723 680.718 492.862Q681.338 497.001 681.753 501.166Q682.169 505.33 682.38 509.51Q682.591 513.69 682.597 517.875Q682.602 522.06 682.403 526.24Q682.203 530.421 681.799 534.586Q681.394 538.752 680.786 542.893Q680.178 547.033 679.367 551.139Q678.557 555.245 677.546 559.306Q676.535 563.367 675.326 567.374Q674.117 571.381 672.713 575.323Q671.308 579.266 669.713 583.135Q668.117 587.004 666.334 590.79Q664.55 594.576 662.583 598.27Q660.616 601.964 658.47 605.557Q656.324 609.15 654.004 612.634Q651.685 616.117 649.197 619.483Q646.71 622.848 644.06 626.088Q641.41 629.327 638.605 632.433Q635.799 635.539 632.845 638.503Q629.891 641.467 626.795 644.283Q623.698 647.099 620.468 649.76Q617.237 652.42 613.88 654.919Q610.523 657.418 607.047 659.749Q603.572 662.081 599.986 664.239Q596.4 666.397 592.712 668.376Q589.025 670.356 585.245 672.152Q581.465 673.948 577.601 675.557Q573.738 677.166 569.8 678.583Q565.862 680 561.86 681.223Q557.857 682.445 553.799 683.47Q549.741 684.494 545.638 685.319Q541.535 686.143 537.397 686.765Q533.258 687.387 529.094 687.806Q524.93 688.224 520.75 688.438Q516.567 688.652 512.378 688.66Q508.19 688.668 504.006 688.471Q499.822 688.274 495.652 687.871Q491.483 687.469 487.339 686.862Q483.194 686.255 479.084 685.446Q474.975 684.636 470.91 683.626Q466.845 682.616 462.834 681.408Q458.824 680.199 454.877 678.795Q450.931 677.391 447.058 675.795Q443.186 674.199 439.396 672.415Q435.606 670.631 431.909 668.663Q428.211 666.695 424.615 664.548Q421.018 662.401 417.531 660.08Q414.045 657.759 410.676 655.269Q407.308 652.78 404.065 650.128Q400.823 647.476 397.715 644.668Q394.606 641.861 391.64 638.904Q388.673 635.947 385.855 632.848Q383.037 629.749 380.375 626.515Q377.712 623.282 375.212 619.921Q372.711 616.561 370.379 613.082Q368.046 609.603 365.887 606.013Q363.729 602.424 361.748 598.733Q359.768 595.042 357.972 591.258Q356.175 587.474 354.567 583.607Q352.958 579.739 351.541 575.797Q350.124 571.856 348.903 567.849Q347.681 563.843 346.657 559.781Q345.634 555.719 344.811 551.612Q343.988 547.505 343.368 543.363Q342.748 539.22 342.331 535.052Q341.915 530.884 341.704 526.701Q341.493 522.518 341.487 518.329Q341.482 514.14 341.682 509.957Q341.882 505.773 342.288 501.604Q342.693 497.435 343.302 493.291Q343.912 489.147 344.724 485.037Q345.536 480.928 346.549 476.864Q347.562 472.8 348.773 468.79Q349.984 464.78 351.39 460.835Q352.797 456.889 354.395 453.018Q355.994 449.146 357.781 445.357Q359.567 441.569 361.538 437.873Q363.508 434.177 365.658 430.582Q367.807 426.987 370.13 423.501Q372.454 420.016 374.945 416.649Q377.437 413.282 380.091 410.042Q382.745 406.801 385.555 403.695Q388.365 400.588 391.324 397.624Q394.282 394.659 397.383 391.843Q400.484 389.027 403.72 386.367Q406.955 383.706 410.317 381.208Q413.679 378.71 417.16 376.38Q420.64 374.05 424.231 371.893Q427.822 369.736 431.514 367.759Q435.207 365.781 438.992 363.987Q442.777 362.193 446.645 360.587Q450.514 358.981 454.456 357.567Q458.399 356.152 462.406 354.933Q466.414 353.714 470.476 352.694Q474.538 351.673 478.646 350.853Q482.753 350.032 486.896 349.415Q491.039 348.797 495.207 348.384Q499.376 347.97 503.559 347.762Z"/>
	<path fill="#CCC" d="M506.858 520.702C506.919 520.691 506.979 520.675 507.041 520.669Q508.708 520.516 510.38 520.443Q512.053 520.37 513.727 520.378Q515.401 520.385 517.072 520.474Q518.744 520.562 520.409 520.731Q522.075 520.899 523.73 521.148Q525.386 521.396 527.027 521.724Q528.669 522.052 530.292 522.459Q531.916 522.866 533.519 523.35Q535.121 523.835 536.698 524.396Q538.275 524.956 539.824 525.593Q541.372 526.229 542.888 526.939Q544.404 527.649 545.884 528.431Q547.364 529.213 548.805 530.066Q550.245 530.918 551.643 531.839Q553.041 532.76 554.393 533.747Q555.745 534.734 557.048 535.785C571.822 547.839 579.384 564.52 581.235 583.285C581.868 589.703 583.482 612.009 579.567 616.285C577.834 618.178 574.558 618.606 572.163 618.894C566.192 619.612 559.783 619.02 553.757 618.993L517.75 618.936L477.942 618.969C467.429 619.02 456.859 619.409 446.387 618.35C444.468 617.112 443.077 615.722 441.555 614.029C441.382 588.669 440.623 567.023 457.678 546.066C470.107 530.793 487.531 522.757 506.858 520.702Z"/>
	<path fill="#CCC" d="M506.886 431.773Q507.891 431.642 508.902 431.561Q509.913 431.48 510.926 431.449Q511.939 431.417 512.953 431.436Q513.967 431.454 514.978 431.523Q515.99 431.591 516.997 431.709Q518.004 431.827 519.004 431.995Q520.004 432.162 520.994 432.378Q521.985 432.595 522.963 432.859Q523.942 433.124 524.906 433.437Q525.871 433.749 526.819 434.109Q527.767 434.468 528.696 434.874Q529.625 435.28 530.533 435.731Q531.441 436.182 532.326 436.677Q533.211 437.172 534.07 437.71Q534.929 438.248 535.761 438.827Q536.593 439.407 537.395 440.027Q538.198 440.646 538.969 441.305Q539.74 441.963 540.477 442.659Q541.215 443.355 541.917 444.086Q542.62 444.816 543.285 445.581Q543.951 446.346 544.579 447.142Q545.206 447.939 545.793 448.765Q546.381 449.591 546.927 450.446Q547.473 451.3 547.976 452.18Q548.48 453.06 548.939 453.964Q549.399 454.867 549.813 455.792Q550.228 456.718 550.596 457.662Q550.965 458.607 551.287 459.568Q551.608 460.53 551.882 461.506Q552.156 462.482 552.382 463.47Q552.608 464.459 552.785 465.457Q552.961 466.455 553.089 467.461Q553.217 468.467 553.294 469.478Q553.372 470.488 553.401 471.502Q553.429 472.515 553.407 473.529Q553.385 474.543 553.314 475.554Q553.242 476.565 553.121 477.572Q553 478.578 552.829 479.578Q552.659 480.577 552.439 481.567Q552.22 482.557 551.952 483.535Q551.684 484.513 551.368 485.476Q551.053 486.44 550.69 487.386Q550.328 488.333 549.919 489.261Q549.51 490.189 549.056 491.095Q548.603 492.002 548.105 492.885Q547.607 493.768 547.066 494.626Q546.526 495.484 545.943 496.314Q545.361 497.144 544.739 497.944Q544.117 498.744 543.456 499.513Q542.795 500.282 542.097 501.017Q541.399 501.753 540.666 502.453Q539.933 503.153 539.166 503.817Q538.399 504.48 537.601 505.105Q536.802 505.73 535.974 506.314Q535.146 506.899 534.29 507.443Q533.434 507.986 532.552 508.487Q531.671 508.987 530.766 509.444Q529.86 509.901 528.934 510.312Q528.007 510.724 527.062 511.089Q526.116 511.455 525.154 511.774Q524.191 512.092 523.214 512.363Q522.237 512.634 521.248 512.857Q520.259 513.079 519.26 513.253Q518.261 513.427 517.255 513.551Q516.253 513.675 515.246 513.75Q514.239 513.824 513.229 513.849Q512.22 513.875 511.21 513.85Q510.201 513.826 509.194 513.753Q508.187 513.679 507.184 513.556Q506.182 513.433 505.187 513.261Q504.192 513.09 503.207 512.869Q502.221 512.649 501.248 512.381Q500.274 512.112 499.315 511.797Q498.356 511.481 497.413 511.119Q496.471 510.757 495.547 510.349Q494.623 509.941 493.721 509.488Q492.818 509.035 491.939 508.539Q491.059 508.042 490.205 507.504Q489.351 506.965 488.525 506.385Q487.698 505.805 486.901 505.185Q486.104 504.565 485.338 503.907Q484.572 503.249 483.839 502.554Q483.106 501.859 482.409 501.129Q481.711 500.4 481.05 499.636Q480.388 498.873 479.765 498.079Q479.142 497.284 478.559 496.46Q477.975 495.636 477.433 494.784Q476.89 493.932 476.39 493.055Q475.89 492.178 475.434 491.277Q474.977 490.376 474.566 489.454Q474.154 488.532 473.788 487.591Q473.422 486.65 473.102 485.692Q472.782 484.734 472.51 483.762Q472.238 482.79 472.013 481.805Q471.789 480.82 471.613 479.826Q471.437 478.832 471.31 477.83Q471.183 476.828 471.105 475.821Q471.027 474.815 470.999 473.805Q470.971 472.796 470.992 471.786Q471.013 470.777 471.083 469.77Q471.154 468.762 471.273 467.76Q471.393 466.757 471.562 465.761Q471.73 464.766 471.948 463.78Q472.165 462.793 472.43 461.819Q472.695 460.845 473.008 459.885Q473.321 458.924 473.68 457.981Q474.039 457.037 474.444 456.112Q474.849 455.187 475.299 454.283Q475.749 453.379 476.243 452.498Q476.736 451.617 477.272 450.762Q477.808 449.906 478.386 449.077Q478.963 448.249 479.581 447.45Q480.198 446.651 480.853 445.883Q481.509 445.115 482.202 444.38Q482.894 443.645 483.622 442.945Q484.349 442.245 485.111 441.581Q485.872 440.917 486.664 440.292Q487.457 439.666 488.279 439.08Q489.102 438.494 489.952 437.949Q490.802 437.404 491.677 436.901Q492.553 436.399 493.452 435.939Q494.352 435.48 495.272 435.065Q496.193 434.651 497.133 434.281Q498.073 433.912 499.03 433.59Q499.986 433.267 500.958 432.992Q501.929 432.716 502.913 432.489Q503.897 432.261 504.891 432.082Q505.885 431.903 506.886 431.773Z"/>
	<path fill="#895D47" d="M676.539 157.188C688.423 156.626 700.509 157.054 712.415 157.05L780.345 157.064L845.957 157.269C860.546 157.272 875.163 156.838 889.739 157.59C892.515 157.733 895.539 157.814 897.976 159.314C899.951 160.53 901.257 162.182 901.738 164.461C903.518 172.908 902.495 182.611 902.433 191.248L902.411 228.812L902.504 317.803C902.538 334.007 903.023 350.347 902.543 366.537C902.455 369.519 902.288 373.382 900.514 375.863C897.899 379.518 892.113 379.838 888.042 380.304C880.054 380.68 871.917 379.933 863.905 379.935L799.148 379.988L727.693 380.087C710.747 380.167 693.723 380.578 676.787 379.984C674.245 379.895 668.548 379.794 666.634 378.172C664.943 376.74 664.194 372.739 663.89 370.685C662.888 363.921 663.832 356.092 663.863 349.194L663.968 301.49L664.043 214.513C664.032 198.922 663.372 183.031 664.18 167.472C664.311 164.951 664.6 163.006 666.261 161C668.785 157.953 672.875 157.608 676.539 157.188Z"/>
	<path fill="#D4944C" d="M777.638 226.681C781.628 226.525 785.571 226.226 789.544 225.829Q789.048 295.164 789.564 364.495L777.949 364.495Q778.056 323.589 777.733 282.684C777.758 264.008 778.332 245.352 777.638 226.681Z"/>
	<path fill="#D85143" d="M777.638 226.681C777.308 226.618 776.974 226.573 776.647 226.494C772.347 225.445 768.295 221.424 766.014 217.797C762.615 212.391 761.016 205.716 762.566 199.436Q762.693 198.92 762.846 198.412Q762.999 197.903 763.178 197.404Q763.358 196.904 763.563 196.414Q763.768 195.924 763.999 195.446Q764.229 194.968 764.484 194.502Q764.739 194.036 765.018 193.584Q765.297 193.133 765.599 192.696Q765.901 192.259 766.226 191.839Q766.55 191.419 766.896 191.016Q767.242 190.613 767.609 190.229Q767.975 189.844 768.361 189.48Q768.747 189.115 769.152 188.771Q769.556 188.427 769.978 188.104Q770.4 187.782 770.838 187.482Q771.276 187.182 771.729 186.905Q772.182 186.628 772.649 186.375Q773.114 186.114 773.591 185.876Q774.068 185.639 774.556 185.425Q775.045 185.212 775.543 185.023Q776.042 184.835 776.549 184.671Q777.056 184.508 777.571 184.37Q778.086 184.232 778.607 184.121Q779.128 184.009 779.654 183.923Q780.18 183.838 780.71 183.779Q781.24 183.72 781.772 183.687Q782.304 183.655 782.837 183.649Q783.37 183.644 783.902 183.665Q784.435 183.686 784.966 183.733Q785.497 183.781 786.024 183.855Q786.552 183.93 787.076 184.03Q787.599 184.131 788.117 184.258Q788.634 184.384 789.145 184.537C794.399 186.145 798.596 189.847 801.124 194.696C803.981 200.176 804.933 206.598 802.875 212.509C800.555 219.17 795.566 222.793 789.544 225.829C785.571 226.226 781.628 226.525 777.638 226.681Z"/>
	<path fill="#D4944C" d="M328.532 696.089C328.168 692.366 327.286 688.031 328.802 684.489C331.749 681.785 337.66 681.827 341.498 681.965C343.454 682.036 347.243 682.23 348.653 683.77C350.746 686.056 349.92 693.108 349.776 696.092L364.984 696.05L364.916 720.838L364.899 721.564C364.936 726.392 365.912 736.851 365.371 740.823C365.17 742.296 364.674 743.502 363.599 744.572C360.67 747.486 353.629 746.465 349.795 746.314Q349.986 754.895 349.979 763.478C354.81 763.447 359.663 763.318 364.492 763.482C365.72 771.442 365.024 779.911 365.073 787.951C365.108 793.838 365.737 799.843 365.227 805.709C365.288 807.903 365.522 809.639 363.836 811.297C361.18 813.91 353.596 813.082 350.013 813.111L349.91 830.122L350.626 830.079C353.652 829.9 361.784 828.72 363.89 831.08C365.573 832.966 365.562 836.893 365.581 839.348C365.603 842.265 365.676 847.049 363.337 849.111C362.149 850.158 294.39 849.64 287.229 849.638L187.077 849.834L153.729 850.018C146.64 850.047 139.136 850.521 132.12 849.43C131.131 845.569 130.505 841.095 130.508 837.099C130.51 834.868 130.842 832.471 132.58 830.89C136.029 827.751 143.797 829.262 148.021 829.643Q148.062 821.084 147.988 812.526C142.515 813.019 137.06 812.768 131.592 812.363C131.43 809.304 131.158 806.219 131.335 803.158C131.369 789.784 131.188 776.361 131.64 762.996L148.084 763.061L148.021 746.536C142.647 746.92 137.289 746.694 131.924 746.304C130.613 738.898 131.199 731.527 131.287 724.054L131.479 696.405Q139.649 696.381 147.817 696.538C147.794 692.583 147.011 686.568 150.103 683.597C151.851 681.917 154.408 681.687 156.708 681.837C160.808 682.105 165.045 682.611 168.957 683.879C169.15 688.095 169.159 692.27 169.069 696.488C191.326 695.28 213.926 696.012 236.218 696.059L328.532 696.089ZM169.027 829.297C186.567 829.978 204.271 829.418 221.83 829.431L328.217 829.515Q328.178 821.183 328.054 812.851C294.02 813.284 259.953 812.974 225.915 813.005L192.317 813.089C184.614 813.109 176.749 813.39 169.081 812.592C169.213 817.961 169.671 823.966 169.027 829.297ZM169.481 762.704C192.772 761.928 216.259 762.441 239.569 762.457C269.152 762.478 298.847 762.189 328.415 763.104C328.28 757.551 328.432 751.976 328.483 746.422L169.479 746.507L169.481 762.704Z"/>
	<path fill="#D4944C" d="M328.532 696.089C328.168 692.366 327.286 688.031 328.802 684.489C331.749 681.785 337.66 681.827 341.498 681.965C343.454 682.036 347.243 682.23 348.653 683.77C350.746 686.056 349.92 693.108 349.776 696.092L364.984 696.05L364.916 720.838L364.899 721.564C364.936 726.392 365.912 736.851 365.371 740.823C365.17 742.296 364.674 743.502 363.599 744.572C360.67 747.486 353.629 746.465 349.795 746.314C342.7 746.504 335.581 746.408 328.483 746.422L169.479 746.507L169.481 762.704Q158.777 762.573 148.084 763.061L148.021 746.536C142.647 746.92 137.289 746.694 131.924 746.304C130.613 738.898 131.199 731.527 131.287 724.054L131.479 696.405Q139.649 696.381 147.817 696.538C147.794 692.583 147.011 686.568 150.103 683.597C151.851 681.917 154.408 681.687 156.708 681.837C160.808 682.105 165.045 682.611 168.957 683.879C169.15 688.095 169.159 692.27 169.069 696.488C191.326 695.28 213.926 696.012 236.218 696.059L328.532 696.089Z"/>
	<path fill="#895D47" d="M148.021 746.536Q158.75 746.64 169.479 746.507L169.481 762.704Q158.777 762.573 148.084 763.061L148.021 746.536Z"/>
	<path fill="#895D47" d="M147.817 696.538C147.794 692.583 147.011 686.568 150.103 683.597C151.851 681.917 154.408 681.687 156.708 681.837C160.808 682.105 165.045 682.611 168.957 683.879C169.15 688.095 169.159 692.27 169.069 696.488C161.982 697.092 154.909 696.938 147.817 696.538Z"/>
	<path fill="#895D47" d="M328.532 696.089C328.168 692.366 327.286 688.031 328.802 684.489C331.749 681.785 337.66 681.827 341.498 681.965C343.454 682.036 347.243 682.23 348.653 683.77C350.746 686.056 349.92 693.108 349.776 696.092C342.713 696.391 335.591 696.533 328.532 696.089Z"/>
	<path fill="#D85143" d="M364.899 721.564C355.727 723.161 345.847 721.608 336.543 722.053C303.067 723.656 269.606 724.357 236.129 725.658C213.126 726.553 189.891 726.504 166.861 726.604C156.523 726.649 145.534 727.594 135.283 726.67C134.048 726.559 133.29 726.309 132.374 725.462C134.05 724.587 212.06 724.992 221.43 724.86C254.176 724.397 286.911 722.518 319.648 721.983C330.031 721.814 340.499 721.258 350.886 720.89C355.381 720.73 360.492 719.957 364.916 720.838L364.899 721.564Z"/>
	<path fill="#D85143" d="M234.882 710.236C243.412 709.363 252.844 709.921 261.439 709.932C276.063 709.95 290.776 709.546 305.388 710.064C314.782 710.396 324.083 711.614 333.475 711.903C341.482 712.149 353.319 710.508 360.676 711.945C361.08 712.024 361.916 712.124 362.129 712.455L361.833 712.156L361.687 712.91C353.208 712.174 344.259 713.318 335.685 712.961C327.086 712.602 318.491 711.373 309.868 711.07C296.928 710.614 283.837 711.028 270.882 711.066C245.211 711.043 219.542 711.744 193.873 712.143C176.797 712.408 159.789 712.944 142.737 711.733L143.338 712.153L143.057 711.638C144.751 710.932 225.605 710.368 234.882 710.236Z"/>
	<path fill="#D85143" d="M132.714 740.259C148.005 738.659 164.257 740.892 179.653 741.109Q225.746 741.706 271.839 741.068C280.026 741.029 318.294 739.809 323.414 741.725C309.404 743.233 292.18 741.993 277.796 742.051C262.3 742.113 246.833 743.049 231.322 743.008C206.53 742.942 181.715 741.758 156.941 741.082C150.769 740.914 138.117 742.372 132.714 740.259Z"/>
	<path fill="#895D47" d="M147.988 812.526C155.037 812.163 162.058 811.606 169.081 812.592C169.213 817.961 169.671 823.966 169.027 829.297C186.567 829.978 204.271 829.418 221.83 829.431L328.217 829.515Q328.178 821.183 328.054 812.851Q339.037 812.665 350.013 813.111L349.91 830.122L350.626 830.079C353.652 829.9 361.784 828.72 363.89 831.08C365.573 832.966 365.562 836.893 365.581 839.348C365.603 842.265 365.676 847.049 363.337 849.111C362.149 850.158 294.39 849.64 287.229 849.638L187.077 849.834L153.729 850.018C146.64 850.047 139.136 850.521 132.12 849.43C131.131 845.569 130.505 841.095 130.508 837.099C130.51 834.868 130.842 832.471 132.58 830.89C136.029 827.751 143.797 829.262 148.021 829.643Q148.062 821.084 147.988 812.526Z"/>
	<path fill="#D85143" d="M131.335 803.158L131.899 804.287C137.372 804.445 143.131 804.518 148.553 805.288C152.371 805.831 155.76 806.931 159.683 807.116C172.737 807.731 185.468 806.793 198.481 806.593C206.643 806.468 214.818 807.073 222.968 806.857C231.765 806.623 240.542 805.702 249.342 805.505Q288.303 804.908 327.264 805.455L351.317 805.449C355.827 805.444 360.758 805.136 365.227 805.709C365.288 807.903 365.522 809.639 363.836 811.297C361.18 813.91 353.596 813.082 350.013 813.111Q339.037 812.665 328.054 812.851C294.02 813.284 259.953 812.974 225.915 813.005L192.317 813.089C184.614 813.109 176.749 813.39 169.081 812.592C162.058 811.606 155.037 812.163 147.988 812.526C142.515 813.019 137.06 812.768 131.592 812.363C131.43 809.304 131.158 806.219 131.335 803.158Z"/>
	<path fill="#895D47" d="M328.483 746.422C335.581 746.408 342.7 746.504 349.795 746.314Q349.986 754.895 349.979 763.478C342.806 763.548 335.575 763.55 328.415 763.104C328.28 757.551 328.432 751.976 328.483 746.422Z"/>
	<path fill="#D85143" d="M267.882 771.202C281.7 770.496 295.767 770.972 309.612 771.016C318.962 771.045 329.11 770.237 338.317 771.668C333.395 772.478 327.547 771.906 322.487 771.935Q304.582 772.11 286.677 772.07Q244.873 772.765 203.125 775.057C195.539 775.168 136.42 774.537 133.652 772.185C140 771.731 146.624 772.547 153.002 772.776C163.635 773.156 174.346 773.438 184.985 773.541C199.106 773.677 213.227 772.683 227.338 772.215C240.853 771.767 254.364 771.819 267.882 771.202Z"/>
	<path fill="#D85143" d="M297.537 775.257C305.083 774.691 312.946 774.973 320.513 775.266L321.039 775.7L322.663 775.499L322.02 775.381L321.929 775.649L322.343 775.425L321.902 775.407L322.011 775.676L322.667 775.541L321.546 775.391L321.258 775.75C315.772 776.158 310.248 775.854 304.751 776.025L259.569 777.264C226.333 777.966 193.117 778.971 159.875 778.076C151.798 778.08 142.405 778.919 134.531 777.381C139.619 776.128 146.272 776.907 151.543 776.941Q164.828 777.029 178.113 776.983C199.345 776.934 220.536 776.185 241.752 776.026C260.343 775.887 278.973 776.413 297.537 775.257Z"/>
	<path fill="#D85143" d="M253.128 790.255C256.42 789.834 271.525 789.207 273.718 790.544C270.537 793.258 166.552 792.077 153.125 791.963C147.037 791.975 138.739 792.926 132.893 791.436C146.153 790.044 163.309 791.104 176.912 791.129Q215.027 791.291 253.128 790.255Z"/>
	<path fill="#895D47" d="M853.433 710.491C853.848 710.483 854.619 710.449 855.01 710.528C855.808 710.689 856.19 711.013 856.633 711.654C858.241 713.982 859.106 717.539 859.867 720.242C862.184 728.466 863.703 736.899 865.753 745.19C868.587 756.66 871.776 768.08 874.818 779.5C879.741 797.978 885.845 816.42 890.035 835.061C890.663 837.856 891.58 842.005 890.898 844.811C890.652 845.827 889.603 846.626 888.683 847.109C886.925 848.031 884.63 847.955 882.693 847.979C862.053 848.239 841.376 847.97 820.732 847.97L696.659 847.974C686.938 847.975 624.973 848.943 621.439 847.605C620.665 847.312 621.356 847.416 620.233 847.418L619.81 847.82L619.207 847.494C617.171 843.483 621.536 832.314 622.603 827.805C623.077 825.623 623.352 822.753 624.403 820.798C626.22 817.42 630.674 815.72 632.047 811.801C633.05 808.938 630.427 805.947 631.951 803.29C633.807 800.054 639.99 798.841 643.36 797.923C644.559 799.462 645.75 801.077 647.116 802.471C649.055 804.451 651.99 806.383 654.87 806.293C656.448 806.243 657.769 805.59 658.755 804.34C661.608 800.723 660.608 794.51 659.92 790.272C664.413 787.955 669.116 786.278 673.959 784.86C676.328 787.086 678.34 789.863 681.082 791.643C682.762 792.734 684.343 793.332 686.375 792.832C689.089 792.163 690.647 789.219 691.882 787C691.945 783.776 691.542 780.502 691.27 777.288C695.63 774.682 699.627 772.623 704.564 771.354C707.285 774.557 711.279 779.937 715.972 779.965C717.534 779.974 718.83 779.606 719.945 778.464C723.23 775.102 722.624 769.167 722.588 764.884C726.678 762.411 730.812 760.485 735.371 759.044C738.188 762.059 743.216 768.444 747.786 768.44C749.181 768.439 750.064 768.046 751.034 767.044C754.225 763.745 753.967 755.261 754.023 750.982C758.061 749.056 762.263 747.571 766.458 746.033C768.725 748.558 770.819 752.136 773.755 753.911C775.191 754.78 776.778 755.009 778.392 754.565C789.328 751.56 781.528 743.879 785.055 738.294C787.273 734.782 793.578 733.703 797.399 733.105C799.827 735.58 801.465 738.929 804.076 741.212C805.569 742.516 807.903 743.752 809.935 743.417C811.207 743.208 812.207 742.353 812.97 741.36C816.241 737.099 815.722 731.775 815.233 726.807C819.245 724.442 823.35 722.935 827.827 721.696Q829.07 723.086 830.357 724.436C832.779 726.959 836.348 729.836 840.045 729.742C841.436 729.706 842.719 729.142 843.671 728.124C846.877 724.7 846.119 718.685 845.997 714.407C848.423 713.017 850.951 711.779 853.433 710.491Z"/>
	<path fill="#D85143" d="M102.519 487.977C102.149 478.007 100.463 464.003 107.434 455.892C110.92 451.838 115.444 450.44 120.57 450.03C133.557 448.991 147.186 449.844 160.246 449.78C170.982 449.727 182.415 448.472 193.048 449.831C196.999 450.336 200.287 450.962 203.357 453.644C211.004 460.324 210.579 469.2 211.141 478.48Q210.964 483.173 210.986 487.87C211.386 502.402 211.411 516.681 210.869 531.212C210.658 541.916 210.966 552.671 211.034 563.379C211.074 569.679 211.617 576.416 210.243 582.598C209.366 586.54 207.868 590.051 204.88 592.857C202.684 594.918 199.685 596.867 196.712 597.533C190.554 598.911 183.582 598.446 177.299 598.45L151.248 598.448C141.523 598.467 131.527 599.203 121.843 598.644C116.267 598.322 111.345 595.698 107.725 591.458C104.929 588.184 103.385 583.861 102.669 579.65C101.53 572.956 102.363 565.78 102.475 559.002Q102.607 545.244 102.519 531.485C92.4038 531.417 82.2001 532.226 72.1016 531.566C71.5796 516.898 71.9544 502.111 72.0271 487.435C82.1529 487.743 92.4366 486.998 102.519 487.977ZM184.193 484.291C187.059 483.328 189.773 482.289 191.193 479.414C192.266 477.24 192.167 474.804 191.315 472.567C190.687 470.918 189.586 469.582 188.42 468.287C176.884 465.486 143.493 466.949 129.79 467.165C126.88 467.837 124.357 469.072 122.81 471.76C121.675 473.734 121.521 476.143 122.263 478.282C123.122 480.756 124.869 482.721 127.281 483.764C128.62 484.343 130.081 484.644 131.533 484.736C138.18 485.156 145.151 484.638 151.845 484.634C162.549 484.628 173.523 485.058 184.193 484.291Z"/>
	<path fill="#CCC" d="M72.0271 487.435C82.1529 487.743 92.4366 486.998 102.519 487.977Q102.677 509.731 102.519 531.485C92.4038 531.417 82.2001 532.226 72.1016 531.566C71.5796 516.898 71.9544 502.111 72.0271 487.435Z"/>
	<path fill="#CCC" d="M182.483 234.826C212 233.982 241.724 234.501 271.266 234.492L423.863 234.459C423.939 245.895 425.194 276.869 422.357 286.083C421.414 289.146 419.672 291.479 417.425 293.736C413.021 298.16 406.958 302.731 401.513 305.867C397.257 302.933 393.289 299.759 389.303 296.477C385.612 299.814 381.916 303.441 377.848 306.301C373.506 303.236 369.541 299.647 365.634 296.052C361.842 299.221 358.32 302.859 354.442 305.89C350.196 303.052 346.783 299.22 342.859 295.99C338.793 299.358 334.779 302.83 330.585 306.037C326.691 302.549 322.781 299.045 319.082 295.349C315.123 298.915 311.262 302.638 307.251 306.138C304.112 303.447 298.01 296.496 294.1 296.673C290.243 298.698 287.248 303.164 284.188 306.212Q278.24 301.146 272.529 295.814C268.388 299.293 264.453 302.971 260.412 306.56C255.893 303.269 252.169 299.028 248.02 295.301C244.024 298.986 239.968 302.624 236.093 306.436C231.699 303.661 227.865 299.765 223.932 296.364C219.817 299.408 216.067 302.773 212.279 306.203C208.316 303.028 204.464 299.445 201.143 295.596C197.064 298.788 193.108 302.337 188.867 305.291C186.699 302.225 184.452 299.188 182.518 295.969C182.19 288.656 182.495 281.194 182.483 273.867Q182.321 254.346 182.483 234.826Z"/>
	<path fill="#CCC" d="M838.455 467.311C849.718 466.989 866.335 464.447 877.019 468.1C883.45 470.299 902.055 482.287 905.063 488.396C921.718 489.431 938.559 489.051 955.24 489.046C955.743 497.404 955.351 505.897 955.286 514.27C955.243 519.669 955.599 525.267 955.215 530.636C926.649 530.838 898.052 529.797 869.505 530Q869.089 523.512 868.994 517.012C860.306 516.946 851.193 516.26 842.553 517.111C842.442 520.911 842.984 527.524 841.542 530.906C810.056 530.462 778.608 531.193 747.117 531.409C732.212 531.511 717.633 532.044 702.709 531.296Q702.468 529.593 702.313 527.881C701.878 522.825 700.082 493.727 702.547 490.824C711.491 488.339 724.215 489.46 733.633 489.471C756.021 489.497 778.392 490.271 800.777 490.225C800.714 489.644 800.656 489.075 800.628 488.492C800.4 483.807 799.107 472.844 802.614 469.42C806.29 465.833 816.84 467.407 821.691 467.587C823.594 470.033 824.849 472.898 827.439 474.76C828.797 475.737 830.296 476.505 832.011 475.988C835.582 474.912 837.14 470.383 838.455 467.311Z"/>
	<path fill="white" d="M888.654 490.609L892.468 493.809C889.912 494.784 885.219 497.022 882.63 496.984C884.582 494.814 886.643 492.725 888.654 490.609Z"/>
	<path fill="#CCC" d="M491.822 138.206C505.533 138.83 519.376 138.216 533.115 138.493C533.483 152.111 533.008 165.847 533.068 179.48L533.103 274.437C533.02 284.948 532.906 295.491 533.054 306C533.142 312.219 533.559 318.486 533.472 324.699C533.453 326.008 533.618 326.946 532.791 327.981L530.624 328.077C516.952 327.159 503.637 327.277 489.98 328.3C488.802 296.593 489.638 264.669 489.666 232.935L489.765 165.483C489.772 158.468 489.327 151.413 489.465 144.413C489.499 142.699 489.481 140.669 490.253 139.115C490.613 138.392 491.113 138.443 491.822 138.206Z"/>
	<path fill="#CCC" d="M492.1 708.367C505.793 710.102 520.263 709.443 534.042 709.284Q533.514 797.368 534.118 885.447C520.381 886.534 505.855 885.586 492.036 885.511C491.517 857.373 491.991 829.153 491.941 801.005C491.885 770.166 491.352 739.193 492.1 708.367Z"/>
	<path fill="#D85143" d="M182.518 295.969C182.671 301.498 183.675 308.41 182.449 313.729C182.114 314.023 182.002 314.16 181.538 314.35C179.679 315.11 176.772 315.349 174.79 315.444C169.664 315.688 164.444 315.198 159.306 315.188C151.255 315.172 124.697 316.981 118.789 314.287C117.867 313.866 117.655 313.209 117.363 312.293C115.623 306.836 116.099 223.787 117.628 220.873C118.557 220.453 119.368 220.19 120.373 219.986C127.483 218.544 176.923 217.956 180.968 221.177C183.429 223.137 182.542 231.784 182.483 234.826Q182.321 254.347 182.483 273.867C182.495 281.194 182.19 288.656 182.518 295.969Z"/>
	<path fill="#CCC" d="M146.608 262.227Q146.805 262.181 147.003 262.145Q147.202 262.109 147.402 262.083Q147.602 262.056 147.803 262.039Q148.004 262.023 148.206 262.015Q148.408 262.008 148.61 262.011Q148.811 262.014 149.013 262.026Q149.214 262.039 149.415 262.061Q149.616 262.083 149.815 262.115Q150.014 262.147 150.212 262.189Q150.409 262.23 150.605 262.281Q150.8 262.332 150.993 262.393Q151.185 262.453 151.375 262.523Q151.564 262.593 151.75 262.671Q151.936 262.75 152.118 262.838Q152.299 262.926 152.477 263.022Q152.654 263.118 152.827 263.223Q152.999 263.328 153.166 263.441Q153.334 263.554 153.495 263.675Q153.657 263.796 153.812 263.925Q153.968 264.053 154.117 264.189Q154.266 264.326 154.408 264.469Q154.551 264.612 154.686 264.762Q154.821 264.911 154.949 265.068Q155.077 265.224 155.197 265.386Q155.317 265.548 155.429 265.716Q155.541 265.884 155.645 266.057Q155.749 266.23 155.845 266.408Q155.94 266.586 156.027 266.768Q156.113 266.95 156.191 267.137Q156.269 267.323 156.338 267.513Q156.406 267.703 156.466 267.896Q156.525 268.088 156.575 268.284Q156.625 268.48 156.665 268.677Q156.706 268.875 156.737 269.075Q156.768 269.274 156.789 269.475Q156.81 269.676 156.821 269.877Q156.833 270.079 156.834 270.28Q156.836 270.482 156.828 270.684Q156.82 270.886 156.802 271.087Q156.784 271.288 156.757 271.488Q156.729 271.688 156.692 271.886Q156.655 272.085 156.608 272.281Q156.561 272.477 156.505 272.671Q156.449 272.865 156.383 273.056Q156.318 273.247 156.243 273.434Q156.168 273.622 156.085 273.806Q156.001 273.989 155.908 274.169Q155.816 274.348 155.715 274.523Q155.614 274.698 155.505 274.867Q155.395 275.037 155.278 275.201Q155.16 275.365 155.035 275.524Q154.91 275.682 154.777 275.834Q154.644 275.986 154.504 276.131Q154.364 276.277 154.217 276.415Q154.071 276.554 153.917 276.685Q153.764 276.816 153.604 276.94Q153.445 277.064 153.279 277.179Q153.114 277.295 152.943 277.403Q152.772 277.511 152.597 277.61Q152.421 277.709 152.241 277.8Q152.06 277.89 151.876 277.972Q151.691 278.054 151.503 278.127Q151.315 278.2 151.123 278.263Q150.931 278.327 150.737 278.381Q150.47 278.455 150.199 278.512Q149.929 278.568 149.654 278.607Q149.38 278.645 149.104 278.665Q148.828 278.686 148.552 278.687Q148.275 278.689 147.999 278.673Q147.722 278.656 147.448 278.621Q147.173 278.587 146.901 278.534Q146.63 278.481 146.362 278.41Q146.095 278.339 145.832 278.251Q145.57 278.162 145.314 278.057Q145.059 277.951 144.81 277.829Q144.562 277.706 144.322 277.568Q144.083 277.429 143.853 277.275Q143.623 277.121 143.404 276.952Q143.185 276.783 142.977 276.6Q142.77 276.417 142.575 276.22Q142.38 276.023 142.199 275.814Q142.017 275.605 141.85 275.385Q141.683 275.164 141.531 274.933Q141.379 274.702 141.242 274.461Q141.106 274.22 140.985 273.971Q140.865 273.721 140.762 273.465Q140.658 273.208 140.572 272.945Q140.486 272.682 140.417 272.414Q140.349 272.146 140.298 271.873Q140.248 271.601 140.215 271.326Q140.183 271.052 140.169 270.775Q140.154 270.499 140.159 270.222Q140.163 269.945 140.185 269.669Q140.208 269.393 140.249 269.12Q140.29 268.846 140.348 268.575Q140.407 268.305 140.484 268.039Q140.561 267.773 140.655 267.513Q140.749 267.253 140.86 266.999Q140.971 266.746 141.099 266.5Q141.227 266.255 141.371 266.018Q141.514 265.782 141.673 265.555Q141.832 265.329 142.006 265.113Q142.18 264.898 142.368 264.695Q142.555 264.491 142.756 264.301Q142.957 264.11 143.17 263.933Q143.383 263.757 143.607 263.594Q143.831 263.432 144.065 263.285Q144.3 263.138 144.544 263.007Q144.787 262.876 145.039 262.761Q145.291 262.646 145.55 262.548Q145.809 262.45 146.074 262.37Q146.338 262.29 146.608 262.227Z"/>
	<path fill="#CCC" d="M211.141 478.48C212.994 481.386 214.857 484.215 216.977 486.933C218.194 487.603 219.087 487.78 220.476 487.879C228.912 488.485 237.785 487.831 246.257 487.793L296.218 487.801C305.448 487.807 314.838 487.411 324.043 487.911C323.343 502.529 322.042 516.802 322.445 531.477L210.869 531.212C211.411 516.681 211.386 502.402 210.986 487.87Q210.964 483.173 211.141 478.48Z"/>
	<path fill="#D85143" d="M842.553 517.111C851.193 516.26 860.306 516.946 868.994 517.012Q869.089 523.512 869.505 530Q870.416 556.964 871.92 583.901C872.537 594.552 874.113 605.703 873.501 616.331C873.342 619.096 873.228 622.074 871.207 624.173C867.41 628.115 858.728 628.88 853.527 628.765C849.154 628.667 842.768 627.668 839.661 624.419C837.914 622.592 837.698 619.682 837.536 617.284C836.82 606.756 838.234 595.662 838.827 585.116L841.542 530.906C842.984 527.524 842.442 520.911 842.553 517.111Z"/>
</svg>
