<svg xmlns="http://www.w3.org/2000/svg" xmlns:xlink="http://www.w3.org/1999/xlink" width="500" zoomAndPan="magnify" viewBox="0 0 375 374.999991" height="500" preserveAspectRatio="xMidYMid meet" version="1.0"><defs><g/><clipPath id="4b038886b8"><path d="M 39.414062 143.90625 L 189.414062 143.90625 L 189.414062 230.90625 L 39.414062 230.90625 Z M 39.414062 143.90625 " clip-rule="nonzero"/></clipPath></defs><rect x="-37.5" width="450" fill="#ffffff" y="-37.499999" height="449.999989" fill-opacity="1"/><rect x="-37.5" width="450" fill="#ffffff" y="-37.499999" height="449.999989" fill-opacity="1"/><g clip-path="url(#4b038886b8)"><path fill="#895d47" d="M 115.335938 210.398438 L 105.449219 210.398438 C 99.714844 215.941406 91.910156 219.351562 83.308594 219.351562 C 65.714844 219.351562 51.457031 205.09375 51.457031 187.5 C 51.457031 169.90625 65.714844 155.648438 83.308594 155.648438 C 91.910156 155.648438 99.714844 159.058594 105.449219 164.601562 L 189.410156 164.601562 L 112.199219 160.757812 L 113.976562 156.105469 L 140.65625 152.351562 L 107.101562 150.609375 L 102.953125 153.382812 C 101.28125 152.417969 99.535156 151.578125 97.722656 150.863281 L 97.554688 148.855469 L 107.101562 148.824219 L 97.304688 145.886719 L 97.304688 145.890625 L 97.304688 145.886719 C 94.5625 144.964844 91.695312 144.304688 88.738281 143.941406 L 86.207031 148.246094 C 85.25 148.175781 84.285156 148.125 83.308594 148.125 C 82.332031 148.125 81.367188 148.175781 80.410156 148.246094 L 77.878906 143.941406 C 74.921875 144.304688 72.058594 144.964844 69.3125 145.886719 L 68.894531 150.863281 C 67.082031 151.578125 65.335938 152.417969 63.667969 153.382812 L 59.515625 150.609375 C 57.039062 152.210938 54.738281 154.054688 52.640625 156.101562 L 54.417969 160.757812 C 53.105469 162.179688 51.894531 163.691406 50.796875 165.292969 L 45.863281 164.589844 C 44.339844 167.074219 43.058594 169.71875 42.046875 172.496094 L 45.671875 175.917969 C 45.105469 177.753906 44.671875 179.644531 44.378906 181.585938 L 39.632812 183.097656 C 39.492188 184.546875 39.414062 186.011719 39.414062 187.5 C 39.414062 188.984375 39.492188 190.453125 39.632812 191.902344 L 44.378906 193.414062 C 44.671875 195.351562 45.105469 197.246094 45.667969 199.082031 L 42.046875 202.503906 C 43.058594 205.28125 44.339844 207.925781 45.863281 210.410156 L 50.796875 209.707031 C 51.894531 211.308594 53.105469 212.820312 54.417969 214.242188 L 52.640625 218.894531 C 54.738281 220.945312 57.039062 222.789062 59.515625 224.390625 L 63.664062 221.617188 C 65.335938 222.582031 67.082031 223.421875 68.894531 224.136719 L 69.3125 229.113281 C 72.058594 230.035156 74.921875 230.695312 77.878906 231.058594 L 80.410156 226.753906 C 81.367188 226.824219 82.332031 226.871094 83.308594 226.871094 C 84.285156 226.871094 85.25 226.824219 86.207031 226.753906 L 88.738281 231.058594 C 91.695312 230.695312 94.558594 230.035156 97.304688 229.113281 L 107.101562 226.175781 L 97.554688 226.144531 L 97.722656 224.136719 C 99.535156 223.421875 101.28125 222.582031 102.949219 221.617188 L 107.101562 224.390625 L 140.65625 222.648438 L 113.976562 218.898438 L 112.199219 214.242188 L 159.253906 210.398438 L 115.335938 210.398438 " fill-opacity="1" fill-rule="nonzero"/></g><path fill="#895d47" d="M 95.085938 164.601562 L 100.980469 164.601562 C 96.09375 160.824219 89.964844 158.574219 83.308594 158.574219 C 67.332031 158.574219 54.382812 171.523438 54.382812 187.5 C 54.382812 203.476562 67.332031 216.425781 83.308594 216.425781 C 89.964844 216.425781 96.09375 214.175781 100.980469 210.398438 L 84.253906 210.398438 L 91.652344 211.863281 C 89.035156 212.757812 86.230469 213.246094 83.308594 213.246094 C 69.089844 213.246094 57.5625 201.71875 57.5625 187.5 C 57.5625 173.28125 69.089844 161.753906 83.308594 161.753906 C 86.230469 161.753906 89.035156 162.242188 91.652344 163.136719 L 84.253906 164.601562 L 95.085938 164.601562 " fill-opacity="1" fill-rule="nonzero"/><g fill="#b18068" fill-opacity="1"><g transform="translate(68.490007, 201.244278)"><g><path d="M 10.0625 -22.71875 L 1.390625 -22.71875 L 1.390625 -28.5 L 25 -28.5 L 25 -22.71875 L 16.328125 -22.71875 L 16.328125 0 L 10.0625 0 Z M 10.0625 -22.71875 "/></g></g></g><g fill="#b18068" fill-opacity="1"><g transform="translate(94.870685, 201.244278)"><g><path d="M 3.703125 -28.5 L 9.96875 -28.5 L 9.96875 0 L 3.703125 0 Z M 3.703125 -28.5 "/></g></g></g><g fill="#b18068" fill-opacity="1"><g transform="translate(108.549556, 201.244278)"><g><path d="M 3.421875 -28.5 L 10.1875 -28.5 L 17.671875 -16.453125 L 25.171875 -28.5 L 31.921875 -28.5 L 31.921875 0 L 25.6875 0 L 25.6875 -18.609375 L 17.671875 -6.4375 L 17.515625 -6.4375 L 9.5625 -18.484375 L 9.5625 0 L 3.421875 0 Z M 3.421875 -28.5 "/></g></g></g><g fill="#b18068" fill-opacity="1"><g transform="translate(143.886643, 201.244278)"><g><path d="M 3.421875 -28.5 L 16.65625 -28.5 C 19.9375 -28.5 22.421875 -27.660156 24.109375 -25.984375 C 25.410156 -24.679688 26.0625 -23.066406 26.0625 -21.140625 L 26.0625 -21.046875 C 26.0625 -20.234375 25.957031 -19.515625 25.75 -18.890625 C 25.550781 -18.265625 25.28125 -17.703125 24.9375 -17.203125 C 24.601562 -16.703125 24.210938 -16.257812 23.765625 -15.875 C 23.316406 -15.5 22.832031 -15.175781 22.3125 -14.90625 C 23.96875 -14.28125 25.269531 -13.429688 26.21875 -12.359375 C 27.164062 -11.285156 27.640625 -9.800781 27.640625 -7.90625 L 27.640625 -7.8125 C 27.640625 -6.507812 27.390625 -5.367188 26.890625 -4.390625 C 26.390625 -3.421875 25.671875 -2.609375 24.734375 -1.953125 C 23.796875 -1.304688 22.664062 -0.816406 21.34375 -0.484375 C 20.03125 -0.160156 18.578125 0 16.984375 0 L 3.421875 0 Z M 19.828125 -20.078125 C 19.828125 -21.023438 19.472656 -21.75 18.765625 -22.25 C 18.066406 -22.75 17.050781 -23 15.71875 -23 L 9.53125 -23 L 9.53125 -16.984375 L 15.3125 -16.984375 C 16.695312 -16.984375 17.796875 -17.21875 18.609375 -17.6875 C 19.421875 -18.164062 19.828125 -18.9375 19.828125 -20 Z M 21.421875 -8.671875 C 21.421875 -9.617188 21.050781 -10.367188 20.3125 -10.921875 C 19.582031 -11.484375 18.40625 -11.765625 16.78125 -11.765625 L 9.53125 -11.765625 L 9.53125 -5.5 L 16.984375 -5.5 C 18.367188 -5.5 19.453125 -5.75 20.234375 -6.25 C 21.023438 -6.75 21.421875 -7.53125 21.421875 -8.59375 Z M 21.421875 -8.671875 "/></g></g></g><g fill="#b18068" fill-opacity="1"><g transform="translate(173.279932, 201.244278)"><g><path d="M 3.421875 -28.5 L 24.921875 -28.5 L 24.921875 -22.921875 L 9.65625 -22.921875 L 9.65625 -17.140625 L 23.09375 -17.140625 L 23.09375 -11.5625 L 9.65625 -11.5625 L 9.65625 -5.578125 L 25.125 -5.578125 L 25.125 0 L 3.421875 0 Z M 3.421875 -28.5 "/></g></g></g><g fill="#b18068" fill-opacity="1"><g transform="translate(200.556248, 201.244278)"><g><path d="M 3.421875 -28.5 L 16.453125 -28.5 C 20.054688 -28.5 22.820312 -27.535156 24.75 -25.609375 C 26.382812 -23.984375 27.203125 -21.8125 27.203125 -19.09375 L 27.203125 -19.015625 C 27.203125 -16.703125 26.640625 -14.820312 25.515625 -13.375 C 24.390625 -11.925781 22.914062 -10.863281 21.09375 -10.1875 L 28.0625 0 L 20.71875 0 L 14.625 -9.125 L 9.6875 -9.125 L 9.6875 0 L 3.421875 0 Z M 16.046875 -14.65625 C 17.585938 -14.65625 18.769531 -15.019531 19.59375 -15.75 C 20.425781 -16.488281 20.84375 -17.46875 20.84375 -18.6875 L 20.84375 -18.765625 C 20.84375 -20.128906 20.40625 -21.148438 19.53125 -21.828125 C 18.664062 -22.503906 17.460938 -22.84375 15.921875 -22.84375 L 9.6875 -22.84375 L 9.6875 -14.65625 Z M 16.046875 -14.65625 "/></g></g></g><g fill="#b18068" fill-opacity="1"><g transform="translate(229.990244, 201.244278)"><g><path d="M 3.421875 -28.5 L 9.6875 -28.5 L 9.6875 -5.703125 L 23.90625 -5.703125 L 23.90625 0 L 3.421875 0 Z M 3.421875 -28.5 "/></g></g></g><g fill="#b18068" fill-opacity="1"><g transform="translate(255.190304, 201.244278)"><g><path d="M 11.4375 -11.234375 L 0.484375 -28.5 L 7.8125 -28.5 L 14.625 -17.0625 L 21.546875 -28.5 L 28.671875 -28.5 L 17.71875 -11.359375 L 17.71875 0 L 11.4375 0 Z M 11.4375 -11.234375 "/></g></g></g></svg>